<svg width="15" height="13" viewBox="0 0 15 13" fill="none" xmlns="http://www.w3.org/2000/svg">
<path d="M2.99793 3.1643H2.24257C1.84189 3.1643 1.45763 3.30351 1.17431 3.55131C0.890993 3.79912 0.731827 4.13521 0.731827 4.48566V10.4318C0.731827 10.7822 0.890993 11.1183 1.17431 11.3661C1.45763 11.6139 1.84189 11.7531 2.24257 11.7531H9.04089C9.44156 11.7531 9.82582 11.6139 10.1091 11.3661C10.3925 11.1183 10.5516 10.7822 10.5516 10.4318V9.7711" stroke="#4725CE" stroke-linecap="round" stroke-linejoin="round"/>
<path d="M9.79628 1.84294L12.0624 3.82499M13.1086 2.89012C13.4061 2.62992 13.5732 2.277 13.5732 1.90901C13.5732 1.54102 13.4061 1.18811 13.1086 0.927901C12.8111 0.667694 12.4076 0.521511 11.9869 0.521511C11.5661 0.521511 11.1626 0.667694 10.8651 0.927901L4.5087 6.46771V8.44975H6.77481L13.1086 2.89012Z" stroke="#4725CE" stroke-linecap="round" stroke-linejoin="round"/>
</svg>
