<svg width="20" height="14" viewBox="0 0 20 14" fill="none" xmlns="http://www.w3.org/2000/svg">
<path d="M10.2761 0.375305C10.8029 0.377791 12.121 0.388565 13.522 0.435801L14.0192 0.454033C15.429 0.509557 16.8379 0.605688 17.5374 0.768945C18.4697 0.989383 19.2017 1.63081 19.4494 2.44461C19.844 3.7374 19.8933 6.25836 19.8993 6.86912L19.9002 6.99508V7.13928C19.8933 7.75004 19.844 10.2718 19.4494 11.5638C19.1988 12.3801 18.4657 13.0223 17.5374 13.2395C16.8379 13.4027 15.429 13.4988 14.0192 13.5544L13.522 13.5734C12.121 13.6198 10.8029 13.6314 10.2761 13.6331L10.0443 13.6339H9.79268C8.67784 13.6281 4.01523 13.5859 2.53141 13.2395C1.60007 13.019 0.867041 12.3776 0.619408 11.5638C0.224774 10.271 0.175445 7.75004 0.169525 7.13928V6.86912C0.175445 6.25836 0.224774 3.73657 0.619408 2.44461C0.870001 1.62832 1.60303 0.986068 2.5324 0.769774C4.01523 0.422542 8.67882 0.380277 9.79367 0.375305H10.2761ZM8.06122 4.10452V9.90553L13.9807 7.00503L8.06122 4.10452Z" fill="white"/>
</svg>
