<svg width="14" height="13" viewBox="0 0 14 13" fill="none" xmlns="http://www.w3.org/2000/svg">
<path d="M2.7683 3.52493H2.01386C1.61368 3.52493 1.2299 3.65847 0.946928 3.89615C0.66396 4.13384 0.50499 4.45622 0.50499 4.79236V10.4958C0.50499 10.8319 0.66396 11.1543 0.946928 11.392C1.2299 11.6297 1.61368 11.7632 2.01386 11.7632H8.80379C9.20397 11.7632 9.58776 11.6297 9.87073 11.392C10.1537 11.1543 10.3127 10.8319 10.3127 10.4958V9.86208" stroke="#4725CE" stroke-linecap="round" stroke-linejoin="round"/>
<path d="M9.55822 2.25755L11.8215 4.15869M12.8664 3.26198C13.1636 3.0124 13.3305 2.67389 13.3305 2.32092C13.3305 1.96795 13.1636 1.62944 12.8664 1.37985C12.5693 1.13027 12.1663 0.990051 11.7461 0.990051C11.3259 0.990051 10.9229 1.13027 10.6257 1.37985L4.27716 6.69355V8.59469H6.54047L12.8664 3.26198Z" stroke="#4725CE" stroke-linecap="round" stroke-linejoin="round"/>
</svg>
