<svg width="21" height="15" viewBox="0 0 21 15" fill="none" xmlns="http://www.w3.org/2000/svg">
<path d="M10.5459 0.327454C11.0734 0.330046 12.3931 0.341277 13.7958 0.390524L14.2936 0.409532C15.7052 0.467418 17.1158 0.56764 17.8161 0.737844C18.7496 0.967663 19.4826 1.63638 19.7305 2.48481C20.1256 3.83262 20.175 6.46085 20.1809 7.0976L20.1819 7.22892V7.37926C20.175 8.01601 20.1256 10.6451 19.7305 11.992C19.4796 12.8431 18.7457 13.5127 17.8161 13.739C17.1158 13.9092 15.7052 14.0094 14.2936 14.0673L13.7958 14.0872C12.3931 14.1356 11.0734 14.1477 10.5459 14.1494L10.3138 14.1503H10.0619C8.94565 14.1442 4.27728 14.1002 2.79162 13.739C1.85914 13.5092 1.1252 12.8405 0.877258 11.992C0.482136 10.6442 0.432746 8.01601 0.426819 7.37926V7.0976C0.432746 6.46085 0.482136 3.83176 0.877258 2.48481C1.12816 1.63379 1.8621 0.964207 2.79261 0.738708C4.27728 0.3767 8.94664 0.332637 10.0629 0.327454H10.5459ZM8.32827 4.21536V10.2632L14.2551 7.23929L8.32827 4.21536Z" fill="white"/>
</svg>
