<svg width="12" height="12" viewBox="0 0 12 12" fill="none" xmlns="http://www.w3.org/2000/svg">
<path fill-rule="evenodd" clip-rule="evenodd" d="M0 4C0 2.11467 -3.97364e-08 1.17133 0.586 0.586C1.17133 -3.97364e-08 2.11467 0 4 0H8.22867C8.774 0 9.046 -2.98023e-08 9.29133 0.101333C9.536 0.202667 9.72867 0.396 10.1147 0.781333L11.2187 1.88533C11.6047 2.27067 11.7967 2.464 11.8987 2.70867C12 2.954 12 3.226 12 3.77133V8C12 9.88533 12 10.8287 11.414 11.414C10.9867 11.842 10.3687 11.9573 9.33333 11.9887V9.95867C9.33333 9.52267 9.33333 9.13133 9.29067 8.814C9.244 8.46733 9.136 8.11267 8.84533 7.82133C8.554 7.53067 8.19867 7.42267 7.85267 7.376C7.53533 7.33333 7.144 7.33333 6.708 7.33333H4.62533C4.18933 7.33333 3.798 7.33333 3.48067 7.376C3.134 7.42267 2.77933 7.53067 2.488 7.82133C2.19733 8.11267 2.08933 8.468 2.04267 8.814C2 9.13133 2 9.52267 2 9.95867V11.9493C1.35 11.8853 0.912667 11.7407 0.586 11.414C-3.97364e-08 10.8287 0 9.88533 0 8V4ZM8 10V12H4C3.76333 12 3.54133 12 3.33333 11.9987V10C3.33333 9.51 3.33467 9.20933 3.364 8.99133C3.39 8.80067 3.426 8.76867 3.43067 8.76467C3.43533 8.76 3.46667 8.72333 3.658 8.69733C3.876 8.668 4.17667 8.66667 4.66667 8.66667H6.66667C7.15667 8.66667 7.45733 8.668 7.67533 8.69733C7.86667 8.72333 7.898 8.75933 7.902 8.764H7.90267C7.90733 8.76867 7.94333 8.80067 7.96933 8.99133C7.99867 9.20933 8 9.51 8 10ZM2.66667 2.66667C2.48986 2.66667 2.32029 2.7369 2.19526 2.86193C2.07024 2.98695 2 3.15652 2 3.33333C2 3.51014 2.07024 3.67971 2.19526 3.80474C2.32029 3.92976 2.48986 4 2.66667 4H6C6.17681 4 6.34638 3.92976 6.4714 3.80474C6.59643 3.67971 6.66667 3.51014 6.66667 3.33333C6.66667 3.15652 6.59643 2.98695 6.4714 2.86193C6.34638 2.7369 6.17681 2.66667 6 2.66667H2.66667Z" fill="#DED5FF"/>
</svg>
