<svg width="14" height="14" viewBox="0 0 14 14" fill="none" xmlns="http://www.w3.org/2000/svg">
<path fill-rule="evenodd" clip-rule="evenodd" d="M9.32909 3.87909H4.67026C2.30865 3.87909 1.12714 3.87909 0.463593 4.56993C-0.199954 5.26078 -0.043866 6.32749 0.269009 8.46162L0.564385 10.4859C0.809366 12.1594 0.931856 12.9966 1.55971 13.4977C2.18826 13.9989 3.11358 13.9989 4.96633 13.9989H9.03301C10.8851 13.9989 11.8118 13.9989 12.4396 13.4977C13.0675 12.9966 13.19 12.1594 13.435 10.4859L13.7303 8.46162C14.0432 6.32749 14.1993 5.26078 13.5357 4.56993C12.8722 3.87909 11.6907 3.87909 9.32909 3.87909ZM8.80623 9.65503C9.1975 9.41285 9.1975 8.7857 8.80623 8.54352L6.44672 7.08063C6.06665 6.84475 5.59978 7.15133 5.59978 7.63639V10.5622C5.59978 11.0472 6.06665 11.3531 6.44672 11.1179L8.80623 9.65503Z" fill="white"/>
<path opacity="0.4" d="M4.55688 0H9.44249C9.60488 0 9.72947 7.36617e-08 9.83866 0.0104992C10.6142 0.0867931 11.249 0.552956 11.5185 1.18081H2.48015C2.74893 0.552956 3.38378 0.0867931 4.15931 0.0104992C4.26921 7.36617e-08 4.3938 0 4.55688 0Z" fill="white"/>
<path opacity="0.7" d="M3.01695 1.90594C2.04403 1.90594 1.2461 2.4939 0.979417 3.27294C0.973818 3.28919 0.968451 3.30552 0.963318 3.32193C1.2419 3.23794 1.53167 3.18264 1.82565 3.14485C2.58159 3.04825 3.53771 3.04825 4.64782 3.04825H9.47184C10.582 3.04825 11.5374 3.04825 12.294 3.14485C12.5858 3.18023 12.8742 3.23946 13.1563 3.32193C13.1512 3.30552 13.1459 3.28919 13.1402 3.27294C12.8743 2.4932 12.0756 1.90594 11.102 1.90594H3.01695Z" fill="white"/>
</svg>
