<svg width="21" height="14" viewBox="0 0 21 14" fill="none" xmlns="http://www.w3.org/2000/svg">
<path d="M10.9893 0.443321C11.513 0.445815 12.8233 0.456621 14.216 0.504001L14.7103 0.522288C16.1119 0.577981 17.5124 0.674404 18.2078 0.838157C19.1346 1.05927 19.8623 1.70264 20.1085 2.51891C20.5008 3.81564 20.5498 6.34425 20.5557 6.95687L20.5567 7.08322V7.22785C20.5498 7.84047 20.5008 10.3699 20.1085 11.6658C19.8594 12.4846 19.1307 13.1288 18.2078 13.3466C17.5124 13.5103 16.1119 13.6067 14.7103 13.6624L14.216 13.6816C12.8233 13.7281 11.513 13.7397 10.9893 13.7414L10.7588 13.7422H10.5087C9.40046 13.7364 4.76535 13.694 3.29027 13.3466C2.36442 13.1255 1.63571 12.4821 1.38954 11.6658C0.997231 10.3691 0.948192 7.84047 0.942307 7.22785V6.95687C0.948192 6.34425 0.997231 3.81481 1.38954 2.51891C1.63865 1.70015 2.36737 1.05594 3.29125 0.838989C4.76535 0.490701 9.40144 0.448309 10.5097 0.443321H10.9893ZM8.78748 4.18388V10.0025L14.6721 7.09319L8.78748 4.18388Z" fill="white"/>
</svg>
