<svg width="15" height="13" viewBox="0 0 15 13" fill="none" xmlns="http://www.w3.org/2000/svg">
<path d="M3.67314 3.35629H2.92315C2.52534 3.35629 2.14381 3.49023 1.86251 3.72864C1.58121 3.96705 1.42318 4.29041 1.42318 4.62757V10.3483C1.42318 10.6855 1.58121 11.0089 1.86251 11.2473C2.14381 11.4857 2.52534 11.6196 2.92315 11.6196H9.67306C10.0709 11.6196 10.4524 11.4857 10.7337 11.2473C11.015 11.0089 11.173 10.6855 11.173 10.3483V9.7127" stroke="#4725CE" stroke-linecap="round" stroke-linejoin="round"/>
<path d="M10.4231 2.08507L12.673 3.99199M13.7118 3.09256C14.0071 2.84222 14.1731 2.50267 14.1731 2.14863C14.1731 1.79459 14.0071 1.45505 13.7118 1.20471C13.4164 0.954363 13.0158 0.813721 12.598 0.813721C12.1803 0.813721 11.7797 0.954363 11.4843 1.20471L5.17314 6.53455V8.44147H7.42311L13.7118 3.09256Z" stroke="#4725CE" stroke-linecap="round" stroke-linejoin="round"/>
</svg>
