<svg width="259" height="324" viewBox="0 0 259 324" fill="none" xmlns="http://www.w3.org/2000/svg">
<mask id="mask0_10_196" style="mask-type:alpha" maskUnits="userSpaceOnUse" x="0" y="0" width="259" height="324">
<rect x="0.5" y="0.5" width="258" height="323" rx="24.5" fill="#4725CE" stroke="#5132CB"/>
</mask>
<g mask="url(#mask0_10_196)">
<rect x="0.5" y="0.5" width="258" height="323" rx="24.5" fill="#4725CE" stroke="#5132CB"/>
<path d="M-846.228 169.279C-752.161 145.007 -644.07 128.657 -542.097 111.095C-398.588 86.3804 -252.411 63.7338 -111.246 36.7726C-105.137 35.606 -51.5792 22.919 -78.4104 35.1279C-90.4505 40.6064 -106.557 44.9524 -121.358 48.9542C-183.977 65.8839 -251.777 79.8155 -318.868 93.4141C-489.691 128.038 -664.384 158.847 -833.243 195.184C-901.286 209.826 -969.421 224.325 -1039.24 237.485C-1051.58 239.811 -1074.14 243.96 -1043.99 238.77C-860.11 207.127 -675.609 176.116 -491.284 144.916C-233.662 101.309 23.3901 57.1418 280.029 12.5638C283.535 11.9548 505.4 -26.6847 505.63 -26.4479C510.205 -21.7388 451.92 -7.71243 451.446 -7.58453C386.733 9.89018 319.578 26.1283 251.689 41.3985C-13.6372 101.078 -287.665 154.276 -557.079 210.706C-665.507 233.417 -775.613 255.757 -880.062 281.585C-931.73 294.362 -921.735 292.135 -835.116 277.319C-666.313 248.445 -235.814 171.849 -120.235 151.341C186.807 96.86 492.927 41.324 801.021 -12.159C819.954 -15.4457 846.494 -21.1122 867.94 -22.7472C868.976 -22.8262 868.079 -21.8072 867.44 -21.4622C857.952 -16.3349 842.489 -12.1684 830.61 -8.14991C793.417 4.43217 752.362 15.1353 711.88 25.7733C515.787 77.3027 314.899 125.593 113.357 173.391C-88.5868 221.283 -292.531 267.839 -493.406 316.485C-519.785 322.873 -545.868 329.458 -571.686 336.222C-575.533 337.23 -587.459 339.831 -583.047 339.357C-573.942 338.38 -565.565 336.767 -557.329 334.886C-512.02 324.539 -468.255 313.02 -422.992 302.607C-184.981 247.853 59.2866 198.005 302.752 147.537C540.003 98.3567 781.374 53.5979 1024.5 9.63407C1030.96 8.46622 1049.59 4.85649 1044.6 6.90994C1030.03 12.9098 1014.56 18.7871 998.906 24.2827C959.654 38.0608 917.372 50.3946 875.181 62.5748C755.395 97.1559 631.936 129.226 506.379 160.13C379.389 191.386 251.17 221.755 125.217 253.727C25.9641 278.922 -72.201 304.867 -170.923 330.414C-198.11 337.449 -225.588 344.386 -251.95 351.95C-255.008 352.828 -262.122 355.967 -261.313 354.469C-260.252 352.503 -249.067 349.45 -246.706 348.763C-197.015 334.302 -141.509 322.596 -88.3983 310.523C147.134 256.979 390.653 210.82 637.345 166.76C770.698 142.943 903.361 118.581 1035.24 93.4141C1037.5 92.9821 1062.96 88.8731 1059.08 90.2788C998.687 112.159 937.193 133.49 876.43 155.196C737.155 204.946 610.069 260.17 470.672 309.906" stroke="#5132CB" stroke-width="46" stroke-linecap="round"/>
</g>
</svg>
