<svg width="16" height="12" viewBox="0 0 16 12" fill="none" xmlns="http://www.w3.org/2000/svg">
<path d="M11.0164 8.21546L15.4272 4.5389L15.4831 4.48487C15.5653 4.3905 15.6048 4.27429 15.5946 4.15731C15.5843 4.04034 15.5249 3.93036 15.4272 3.84732L11.0164 0.172425L10.9556 0.12837C10.6025 -0.096064 10.0827 0.120057 10.0827 0.518219V2.28875L9.86203 2.30122C6.36738 2.53563 4.32041 4.41006 3.83197 7.80982C3.76919 8.24621 4.35965 8.51969 4.74216 8.23042C6.14571 7.1681 7.59634 6.5081 9.10189 6.24377C9.34317 6.2011 9.58576 6.16868 9.82966 6.14651L10.0827 6.1274V7.86966L10.0876 7.93783C10.1465 8.31438 10.6849 8.49143 11.0164 8.21546ZM9.93363 3.12996L11.0635 3.06596V1.37605L14.4434 4.19228L11.0635 7.01017V5.21719L9.73354 5.3186H9.72569C8.05536 5.47072 6.47919 6.03762 4.99129 6.98274C5.28357 5.86971 5.78281 5.03266 6.43898 4.43334C7.25305 3.68938 8.3908 3.2347 9.93363 3.12996ZM3.33665 0.869C2.68633 0.869 2.06265 1.08794 1.6028 1.47766C1.14295 1.86738 0.884613 2.39595 0.884613 2.94709V9.59697C0.884613 10.1481 1.14295 10.6767 1.6028 11.0664C2.06265 11.4561 2.68633 11.6751 3.33665 11.6751H11.1832C11.8335 11.6751 12.4572 11.4561 12.917 11.0664C13.3769 10.6767 13.6352 10.1481 13.6352 9.59697V8.76574C13.6352 8.65551 13.5836 8.54979 13.4916 8.47185C13.3996 8.39391 13.2749 8.35012 13.1448 8.35012C13.0148 8.35012 12.89 8.39391 12.798 8.47185C12.7061 8.54979 12.6544 8.65551 12.6544 8.76574V9.59697C12.6544 9.92766 12.4994 10.2448 12.2235 10.4786C11.9476 10.7125 11.5734 10.8438 11.1832 10.8438H3.33665C2.94646 10.8438 2.57225 10.7125 2.29634 10.4786C2.02043 10.2448 1.86543 9.92766 1.86543 9.59697V2.94709C1.86543 2.6164 2.02043 2.29926 2.29634 2.06543C2.57225 1.8316 2.94646 1.70024 3.33665 1.70024H6.2791C6.40917 1.70024 6.53391 1.65645 6.62588 1.5785C6.71784 1.50056 6.76951 1.39485 6.76951 1.28462C6.76951 1.17439 6.71784 1.06868 6.62588 0.990732C6.53391 0.912789 6.40917 0.869 6.2791 0.869H3.33665Z" fill="#4725CE"/>
</svg>
