<svg width="15" height="12" viewBox="0 0 15 12" fill="none" xmlns="http://www.w3.org/2000/svg">
<path d="M10.3212 8.236L14.7581 4.57058L14.8143 4.51672C14.897 4.42263 14.9368 4.30677 14.9265 4.19015C14.9161 4.07353 14.8564 3.96388 14.7581 3.88109L10.3212 0.217336L10.26 0.173414C9.90483 -0.0503398 9.38192 0.165127 9.38192 0.562082V2.32725L9.15992 2.33968C5.64455 2.57338 3.58545 4.44213 3.0941 7.83158C3.03096 8.26666 3.62491 8.53931 4.0097 8.25091C5.42157 7.19181 6.8808 6.53381 8.39528 6.27028C8.63799 6.22774 8.88202 6.19542 9.12736 6.17332L9.38192 6.15426V7.89125L9.38685 7.9592C9.44605 8.33461 9.98771 8.51113 10.3212 8.236ZM9.23195 3.16591L10.3685 3.1021V1.41732L13.7685 4.22501L10.3685 7.03436V5.24682L9.03067 5.34792H9.02278C7.34255 5.49957 5.75703 6.06476 4.2603 7.00701C4.55432 5.89736 5.05652 5.06284 5.71657 4.46534C6.53548 3.72364 7.67997 3.27033 9.23195 3.16591ZM2.59585 0.9118C1.94168 0.9118 1.31429 1.13008 0.851718 1.51861C0.389144 1.90715 0.129272 2.43412 0.129272 2.98359V9.61332C0.129272 10.1628 0.389144 10.6898 0.851718 11.0783C1.31429 11.4668 1.94168 11.6851 2.59585 11.6851H10.4889C11.1431 11.6851 11.7705 11.4668 12.2331 11.0783C12.6956 10.6898 12.9555 10.1628 12.9555 9.61332V8.78461C12.9555 8.67471 12.9035 8.56932 12.811 8.49161C12.7185 8.4139 12.593 8.37025 12.4622 8.37025C12.3313 8.37025 12.2059 8.4139 12.1134 8.49161C12.0208 8.56932 11.9689 8.67471 11.9689 8.78461V9.61332C11.9689 9.94301 11.8129 10.2592 11.5354 10.4923C11.2579 10.7254 10.8814 10.8564 10.4889 10.8564H2.59585C2.20335 10.8564 1.82692 10.7254 1.54937 10.4923C1.27183 10.2592 1.11591 9.94301 1.11591 9.61332V2.98359C1.11591 2.65391 1.27183 2.33773 1.54937 2.1046C1.82692 1.87148 2.20335 1.74052 2.59585 1.74052H5.55575C5.68659 1.74052 5.81207 1.69686 5.90458 1.61915C5.9971 1.54145 6.04907 1.43605 6.04907 1.32616C6.04907 1.21626 5.9971 1.11087 5.90458 1.03316C5.81207 0.955456 5.68659 0.9118 5.55575 0.9118H2.59585Z" fill="#4725CE"/>
</svg>
