<svg width="16" height="13" viewBox="0 0 16 13" fill="none" xmlns="http://www.w3.org/2000/svg">
<path d="M11.1801 8.94819L15.6225 5.1268L15.6788 5.07065C15.7616 4.97255 15.8014 4.85176 15.7911 4.73018C15.7807 4.6086 15.7209 4.49429 15.6225 4.40797L11.1801 0.588313L11.1189 0.542522C10.7632 0.309247 10.2397 0.533882 10.2397 0.947729V2.78801L10.0174 2.80097C6.49768 3.04461 4.43603 4.99289 3.94408 8.52657C3.88086 8.98016 4.47555 9.26441 4.86081 8.96374C6.27443 7.85958 7.73546 7.17358 9.25181 6.89883C9.49483 6.85448 9.73915 6.82078 9.9848 6.79774L10.2397 6.77787V8.58878L10.2446 8.65962C10.3039 9.05101 10.8462 9.23503 11.1801 8.94819ZM10.0895 3.66236L11.2275 3.59583V1.83936L14.6317 4.76652L11.2275 7.69542V5.83181L9.88799 5.93722H9.88009C8.19778 6.09533 6.6103 6.68456 5.11172 7.66691C5.4061 6.51004 5.90892 5.64001 6.56979 5.01708C7.38971 4.24382 8.53562 3.77122 10.0895 3.66236ZM3.44522 1.31233C2.79023 1.31233 2.16207 1.53989 1.69892 1.94496C1.23578 2.35003 0.975586 2.89943 0.975586 3.47228V10.3841C0.975586 10.957 1.23578 11.5064 1.69892 11.9114C2.16207 12.3165 2.79023 12.5441 3.44522 12.5441H11.348C12.003 12.5441 12.6312 12.3165 13.0943 11.9114C13.5575 11.5064 13.8177 10.957 13.8177 10.3841V9.52015C13.8177 9.40558 13.7656 9.2957 13.673 9.21468C13.5804 9.13367 13.4547 9.08816 13.3237 9.08816C13.1927 9.08816 13.0671 9.13367 12.9745 9.21468C12.8819 9.2957 12.8298 9.40558 12.8298 9.52015V10.3841C12.8298 10.7278 12.6737 11.0575 12.3958 11.3005C12.1179 11.5436 11.741 11.6801 11.348 11.6801H3.44522C3.05222 11.6801 2.67533 11.5436 2.39744 11.3005C2.11955 11.0575 1.96344 10.7278 1.96344 10.3841V3.47228C1.96344 3.12857 2.11955 2.79893 2.39744 2.55589C2.67533 2.31285 3.05222 2.17631 3.44522 2.17631H6.40877C6.53977 2.17631 6.6654 2.1308 6.75803 2.04978C6.85066 1.96877 6.9027 1.85889 6.9027 1.74432C6.9027 1.62975 6.85066 1.51987 6.75803 1.43886C6.6654 1.35784 6.53977 1.31233 6.40877 1.31233H3.44522Z" fill="#29127D"/>
</svg>
