<svg width="15" height="14" viewBox="0 0 15 14" fill="none" xmlns="http://www.w3.org/2000/svg">
<path d="M10.3305 9.83799L14.8277 5.41499L14.8847 5.34999C14.9685 5.23645 15.0088 5.09664 14.9984 4.95592C14.9879 4.8152 14.9274 4.68289 14.8277 4.58299L10.3305 0.161981L10.2685 0.108981C9.90848 -0.161019 9.37845 0.0989812 9.37845 0.577982V2.70798L9.15344 2.72298C5.59027 3.00498 3.50317 5.25999 3.00514 9.34999C2.94114 9.87499 3.54317 10.204 3.93319 9.85599C5.36426 8.57799 6.84333 7.78399 8.3784 7.46599C8.62442 7.41466 8.87176 7.37566 9.12044 7.34899L9.37845 7.32599V9.42199L9.38345 9.50399C9.44345 9.95699 9.99248 10.17 10.3305 9.83799ZM9.22644 3.71999L10.3785 3.64299V1.60998L13.8247 4.99799L10.3785 8.38799V6.23099L9.02244 6.35299H9.01443C7.31135 6.53599 5.70427 7.21799 4.1872 8.35499C4.48522 7.01599 4.99424 6.00899 5.66327 5.28799C6.49331 4.39299 7.65337 3.84599 9.22644 3.71999ZM2.50012 0.999982C1.83705 0.999982 1.20113 1.26337 0.732268 1.73222C0.263405 2.20106 0 2.83694 0 3.49999V11.5C0 12.163 0.263405 12.7989 0.732268 13.2678C1.20113 13.7366 1.83705 14 2.50012 14H10.5005C11.1636 14 11.7995 13.7366 12.2684 13.2678C12.7372 12.7989 13.0006 12.163 13.0006 11.5V10.5C13.0006 10.3674 12.9479 10.2402 12.8542 10.1464C12.7604 10.0527 12.6332 9.99999 12.5006 9.99999C12.368 9.99999 12.2408 10.0527 12.147 10.1464C12.0533 10.2402 12.0006 10.3674 12.0006 10.5V11.5C12.0006 11.8978 11.8425 12.2794 11.5612 12.5607C11.2799 12.842 10.8983 13 10.5005 13H2.50012C2.10228 13 1.72073 12.842 1.43941 12.5607C1.15809 12.2794 1.00005 11.8978 1.00005 11.5V3.49999C1.00005 3.10216 1.15809 2.72063 1.43941 2.43932C1.72073 2.15802 2.10228 1.99998 2.50012 1.99998H5.50027C5.63288 1.99998 5.76006 1.9473 5.85384 1.85354C5.94761 1.75977 6.00029 1.63259 6.00029 1.49998C6.00029 1.36737 5.94761 1.2402 5.85384 1.14643C5.76006 1.05266 5.63288 0.999982 5.50027 0.999982H2.50012Z" fill="#29127D"/>
</svg>
