<svg width="58" height="58" viewBox="0 0 58 58" fill="none" xmlns="http://www.w3.org/2000/svg">
<rect x="0.5" y="0.5" width="57" height="57" rx="9.5" fill="white" stroke="#1A46E4"/>
<path d="M29.4893 42.3383C32.2169 38.647 33.7737 34.2218 33.958 29.6357C34.1423 25.0496 32.9457 20.5138 30.5231 16.6154L26.8835 18.8772C28.8533 22.0468 29.8262 25.7348 29.6763 29.4636C29.5265 33.1924 28.2607 36.7904 26.043 39.7918L29.4893 42.3383Z" fill="#1A46E4"/>
<path d="M19.5053 27.9084C20.4182 25.3651 21.8734 23.0508 23.77 21.1261C25.6667 19.2014 27.9593 17.7124 30.489 16.7623L31.7133 20.0222C29.6565 20.7947 27.7924 22.0053 26.2503 23.5702C24.7082 25.1352 23.525 27.0168 22.7828 29.0847L19.5053 27.9084Z" fill="#1A46E4"/>
</svg>
