<svg width="12" height="14" viewBox="0 0 12 14" fill="none" xmlns="http://www.w3.org/2000/svg">
<path d="M1.9852 3.8981C1.90698 3.87624 1.83426 3.83648 1.7722 3.78164C1.71013 3.7268 1.66023 3.65822 1.62602 3.58075C1.59182 3.50328 1.57415 3.41882 1.57426 3.33333C1.57437 3.24785 1.59227 3.16343 1.62667 3.08607L2.84876 0.336495C2.89327 0.235806 2.96408 0.150644 3.05285 0.091032C3.14162 0.0314197 3.24466 -0.000162795 3.34984 6.31046e-07C3.45502 0.000164057 3.55798 0.0320667 3.64658 0.0919546C3.73518 0.151842 3.80575 0.237223 3.84998 0.33805L4.38888 1.55844C4.40812 1.55028 4.42779 1.54327 4.44777 1.53744C5.71919 1.17768 7.0673 1.26961 8.28439 1.79907C9.50148 2.32852 10.52 3.26613 11.1831 4.46742C11.8461 5.66871 12.1169 7.06703 11.9537 8.44693C11.7905 9.82682 11.2023 11.1117 10.2798 12.1037C9.35732 13.0956 8.15171 13.7395 6.84872 13.9362C5.54574 14.133 4.21768 13.8715 3.06917 13.1923C1.92066 12.513 1.01543 11.4535 0.492958 10.1771C-0.029515 8.90076 -0.140241 7.47828 0.17784 6.12887C0.195436 6.05451 0.226722 5.98454 0.269912 5.92295C0.313102 5.86137 0.36735 5.80937 0.42956 5.76994C0.491769 5.7305 0.560722 5.7044 0.63248 5.69311C0.704238 5.68183 0.777396 5.6856 0.847778 5.70419C0.91816 5.72278 0.984387 5.75583 1.04268 5.80146C1.10097 5.84709 1.15018 5.90441 1.18751 5.97014C1.22483 6.03586 1.24954 6.10871 1.26022 6.18453C1.2709 6.26034 1.26734 6.33764 1.24974 6.412C0.991791 7.50726 1.08 8.66161 1.50091 9.69897C1.92182 10.7363 2.65233 11.5998 3.58101 12.1576C4.5097 12.7154 5.58559 12.9369 6.64457 12.7885C7.70356 12.64 8.68752 12.1297 9.44638 11.3353C10.2052 10.5409 10.6973 9.50602 10.8476 8.38858C10.9979 7.27114 10.7981 6.13244 10.2787 5.14615C9.75931 4.15987 8.94884 3.38014 7.9709 2.9259C6.99297 2.47166 5.90125 2.36784 4.86225 2.63027L5.40704 3.86155C5.45163 3.96211 5.46814 4.07402 5.45461 4.18415C5.44108 4.29428 5.39808 4.39804 5.33066 4.48324C5.26324 4.56843 5.17421 4.63153 5.07402 4.66511C4.97383 4.69869 4.86665 4.70136 4.76507 4.67281L1.9852 3.8981Z" fill="#DED5FF"/>
</svg>
