<svg width="15" height="15" viewBox="0 0 15 15" fill="none" xmlns="http://www.w3.org/2000/svg">
<path d="M3.29408 4.05908H2.52939C2.12377 4.05908 1.73476 4.22021 1.44795 4.50703C1.16113 4.79384 1 5.18285 1 5.58847V12.4707C1 12.8763 1.16113 13.2653 1.44795 13.5521C1.73476 13.839 2.12377 14.0001 2.52939 14.0001H9.41163C9.81724 14.0001 10.2062 13.839 10.4931 13.5521C10.7799 13.2653 10.941 12.8763 10.941 12.4707V11.706" stroke="#4725CE" stroke-linecap="round" stroke-linejoin="round"/>
<path d="M10.1766 2.52947L12.4707 4.82355M13.5298 3.74151C13.8309 3.44034 14.0001 3.03186 14.0001 2.60594C14.0001 2.18002 13.8309 1.77154 13.5298 1.47037C13.2286 1.1692 12.8201 1 12.3942 1C11.9683 1 11.5598 1.1692 11.2586 1.47037L4.82373 7.88232V10.1764H7.11781L13.5298 3.74151Z" stroke="#4725CE" stroke-linecap="round" stroke-linejoin="round"/>
</svg>
