<svg width="438" height="743" viewBox="0 0 438 743" fill="none" xmlns="http://www.w3.org/2000/svg">
<mask id="mask0_93_5179" style="mask-type:alpha" maskUnits="userSpaceOnUse" x="0" y="0" width="438" height="743">
<rect x="0.5" y="0.5" width="437" height="742" rx="24.5" fill="#4725CE" stroke="#5132CB"/>
</mask>
<g mask="url(#mask0_93_5179)">
<rect x="0.5" y="0.5" width="437" height="742" rx="24.5" fill="#4725CE" stroke="#5132CB"/>
<path d="M-1431.07 388.192C-1271.99 332.531 -1089.2 295.037 -916.751 254.765C-674.061 198.088 -426.857 146.155 -188.13 84.3274C-177.8 81.652 -87.2269 52.558 -132.602 80.5556C-152.963 93.119 -180.201 103.085 -205.232 112.262C-311.127 151.086 -425.786 183.034 -539.245 214.218C-828.126 293.618 -1123.55 364.269 -1409.11 447.597C-1524.18 481.174 -1639.41 514.423 -1757.48 544.603C-1778.35 549.937 -1816.51 559.451 -1765.51 547.55C-1454.55 474.985 -1142.54 403.871 -830.82 332.322C-395.151 232.322 39.5552 131.038 473.563 28.8114C479.492 27.4148 854.692 -61.1936 855.081 -60.6506C862.818 -49.8517 764.25 -17.6862 763.449 -17.3929C654.011 22.6802 540.444 59.9175 425.635 94.9355C-23.0624 231.793 -486.477 353.788 -942.087 483.194C-1125.45 535.274 -1311.66 586.505 -1488.29 645.734C-1575.67 675.033 -1558.76 669.928 -1412.28 635.951C-1126.82 569.736 -398.79 394.085 -203.331 347.056C315.913 222.12 833.599 94.7647 1354.62 -27.8832C1386.64 -35.4203 1431.52 -48.4148 1467.79 -52.1641C1469.54 -52.3452 1468.03 -50.0086 1466.95 -49.2174C1450.9 -37.4594 1424.75 -27.9048 1404.66 -18.6895C1341.76 10.1639 1272.33 34.7085 1203.87 59.1036C872.257 177.271 532.532 288.012 191.699 397.621C-149.811 507.449 -494.704 614.211 -834.409 725.766C-879.019 740.416 -923.129 755.517 -966.79 771.028C-973.295 773.339 -993.464 779.304 -986.003 778.218C-970.606 775.975 -956.439 772.277 -942.51 767.963C-865.888 744.236 -791.876 717.821 -715.33 693.942C-312.826 568.379 100.26 454.068 511.989 338.333C913.21 225.553 1321.4 122.911 1732.55 22.0929C1743.47 19.4148 1774.98 11.1369 1766.54 15.8459C1741.9 29.6048 1715.75 43.0827 1689.27 55.6854C1622.89 87.2813 1551.39 115.565 1480.04 143.497C1277.46 222.799 1068.68 296.343 856.348 367.211C641.591 438.888 424.757 508.531 211.757 581.849C43.9082 639.626 -122.101 699.124 -289.052 757.709C-335.027 773.842 -381.497 789.75 -426.077 807.096C-431.25 809.108 -443.28 816.307 -441.912 812.871C-440.118 808.362 -421.202 801.363 -417.21 799.788C-333.176 766.625 -239.31 739.781 -149.492 712.094C248.822 589.307 660.641 483.454 1077.83 382.416C1303.34 327.799 1527.69 271.93 1750.71 214.218C1754.54 213.228 1797.6 203.805 1791.04 207.028C1688.9 257.205 1584.9 306.121 1482.15 355.896C1246.62 469.985 1031.7 596.623 795.963 710.679" stroke="#5132CB" stroke-width="46" stroke-linecap="round"/>
</g>
</svg>
