<svg width="30" height="24" viewBox="0 0 30 24" fill="none" xmlns="http://www.w3.org/2000/svg">
<path d="M28.153 1.78176C27.7811 1.40042 27.3378 1.09631 26.8483 0.886817C26.3589 0.677323 25.8329 0.566553 25.3004 0.560846C24.768 0.555138 24.2396 0.654604 23.7453 0.853553C23.2511 1.0525 22.8008 1.34703 22.4201 1.7203L11.3371 12.5736L8.44137 7.20998C8.19374 6.73162 7.85341 6.30752 7.44025 5.96245C7.02708 5.61738 6.54936 5.35824 6.03494 5.20015C5.52052 5.04206 4.97972 4.9882 4.44408 5.04169C3.90845 5.09518 3.38871 5.25497 2.91519 5.51172C2.44167 5.76847 2.02386 6.11705 1.68614 6.53711C1.34841 6.95717 1.09753 7.44031 0.948138 7.95833C0.798746 8.47635 0.753831 9.01888 0.816017 9.55426C0.878202 10.0896 1.04624 10.6071 1.31033 11.0766L6.76118 21.1728C7.2757 22.1288 8.14568 22.8285 9.16725 23.1327L9.71681 23.254C10.337 23.3479 10.9707 23.2963 11.5679 23.1033C12.1651 22.9102 12.7095 22.5811 13.1584 22.1417L28.084 7.52276C28.465 7.14998 28.7689 6.70577 28.9785 6.2155C29.1882 5.72523 29.2994 5.1985 29.3058 4.66539C29.3122 4.13229 29.2137 3.60324 29.0159 3.10847C28.8181 2.61369 28.5249 2.16287 28.153 1.78176Z" fill="black"/>
</svg>
