<svg width="12" height="6" viewBox="0 0 12 6" fill="none" xmlns="http://www.w3.org/2000/svg">
<path d="M5.99995 5.50049C5.69864 5.50049 5.40936 5.38223 5.19434 5.17116C5.19431 5.17113 5.19428 5.1711 5.19425 5.17107L0.510679 0.561481L0.508978 0.559823C0.506113 0.557029 0.503834 0.553689 0.502278 0.549997C0.500721 0.546308 0.49992 0.542345 0.49992 0.538342C0.49992 0.534339 0.500721 0.530375 0.502278 0.526687C0.503834 0.522995 0.506113 0.519655 0.508981 0.516864L0.510402 0.515468C0.519753 0.506278 0.532338 0.50113 0.545448 0.50113C0.558558 0.50113 0.571143 0.506278 0.580493 0.515468L5.2643 5.12429C5.2645 5.12449 5.26471 5.1247 5.26492 5.1249C5.46068 5.31826 5.72477 5.42669 5.99995 5.42669C6.27515 5.42669 6.53925 5.31824 6.73502 5.12486C6.73521 5.12467 6.7354 5.12448 6.7356 5.12429L11.4194 0.514468C11.4194 0.514451 11.4194 0.514434 11.4195 0.514417C11.4288 0.50526 11.4414 0.500131 11.4544 0.500131C11.4676 0.500131 11.4801 0.505279 11.4895 0.514468L11.4914 0.516333C11.4943 0.519128 11.4966 0.522473 11.4981 0.526168C11.4997 0.529863 11.5005 0.533833 11.5005 0.537843C11.5005 0.541853 11.4997 0.545824 11.4981 0.549519C11.4966 0.553211 11.4943 0.556555 11.4914 0.559352L11.4914 0.559346L11.4892 0.561486L6.80564 5.17107C6.80562 5.1711 6.80559 5.17113 6.80556 5.17116C6.59053 5.38223 6.30126 5.50049 5.99995 5.50049ZM11.9587 0.331583C11.9311 0.266314 11.8907 0.207235 11.8399 0.157843L11.8399 0.917843C11.8907 0.86845 11.9311 0.809373 11.9587 0.744103C11.9863 0.678834 12.0005 0.608698 12.0005 0.537843C12.0005 0.466988 11.9863 0.396852 11.9587 0.331583Z" fill="#DED5FF" stroke="#4725CE"/>
</svg>
