<svg width="9" height="9" viewBox="0 0 9 9" fill="none" xmlns="http://www.w3.org/2000/svg">
<path d="M1.34191 0.220893L4.5 3.37885L7.64173 0.237256C7.71112 0.163393 7.79472 0.104306 7.88751 0.0635373C7.9803 0.0227682 8.08037 0.00115711 8.18171 0C8.3987 0 8.6068 0.0861948 8.76023 0.239623C8.91367 0.39305 8.99987 0.601143 8.99987 0.818123C9.00177 0.918427 8.98316 1.01806 8.94518 1.11091C8.90719 1.20377 8.85063 1.28788 8.77896 1.35808L5.59633 4.49968L8.77896 7.68218C8.91381 7.81409 8.99288 7.99272 8.99987 8.18123C8.99987 8.39821 8.91367 8.6063 8.76023 8.75973C8.6068 8.91316 8.3987 8.99935 8.18171 8.99935C8.07744 9.00368 7.97341 8.98628 7.87622 8.94825C7.77904 8.91022 7.69082 8.8524 7.61718 8.77846L4.5 5.62051L1.35009 8.77028C1.28096 8.84168 1.19838 8.89868 1.1071 8.938C1.01583 8.97731 0.917668 8.99817 0.818291 8.99935C0.601302 8.99935 0.3932 8.91316 0.239766 8.75973C0.0863316 8.6063 0.00013312 8.39821 0.00013312 8.18123C-0.00177441 8.08093 0.0168361 7.98129 0.0548228 7.88844C0.0928095 7.79559 0.149371 7.71148 0.221036 7.64127L3.40367 4.49968L0.221036 1.31718C0.086191 1.18526 0.00711987 1.00663 0.00013312 0.818123C0.00013312 0.601143 0.0863316 0.39305 0.239766 0.239623C0.3932 0.0861948 0.601302 0 0.818291 0C1.01465 0.00245437 1.20282 0.0818123 1.34191 0.220893Z" fill="white"/>
</svg>
