<svg width="438" height="790" viewBox="0 0 438 790" fill="none" xmlns="http://www.w3.org/2000/svg">
<mask id="mask0_20_733" style="mask-type:alpha" maskUnits="userSpaceOnUse" x="0" y="0" width="438" height="790">
<rect x="0.5" y="0.5" width="437" height="789" rx="24.5" fill="#4725CE" stroke="#5132CB"/>
</mask>
<g mask="url(#mask0_20_733)">
<rect x="0.5" y="0.5" width="437" height="789" rx="24.5" fill="#4725CE" stroke="#5132CB"/>
<path d="M-1431.07 412.748C-1271.99 353.566 -1089.2 313.701 -916.751 270.881C-674.061 210.619 -426.857 155.4 -188.13 89.6617C-177.8 86.8171 -87.2268 55.8827 -132.602 85.6513C-152.963 99.0095 -180.201 109.606 -205.232 119.364C-311.127 160.643 -425.786 194.612 -539.245 227.769C-828.126 312.191 -1123.55 387.312 -1409.11 475.911C-1524.18 511.612 -1639.41 546.964 -1757.48 579.053C-1778.35 584.724 -1816.51 594.84 -1765.51 582.186C-1454.55 505.031 -1142.54 429.419 -830.82 353.344C-395.15 247.018 39.5553 139.327 473.563 30.634C479.492 29.1489 854.692 -65.0646 855.081 -64.4872C862.818 -53.0051 764.25 -18.805 763.449 -18.4932C654.011 24.1149 540.444 63.7078 425.635 100.941C-23.0623 246.456 -486.477 376.168 -942.087 513.759C-1125.45 569.134 -1311.66 623.605 -1488.29 686.581C-1575.67 717.734 -1558.76 712.306 -1412.28 676.179C-1126.82 605.776 -398.79 419.014 -203.331 369.009C315.913 236.171 833.599 100.759 1354.62 -29.647C1386.64 -37.6608 1431.52 -51.4773 1467.79 -55.4638C1469.54 -55.6564 1468.03 -53.172 1466.95 -52.3307C1450.9 -39.829 1424.75 -29.6699 1404.66 -19.8717C1341.76 10.8068 1272.33 36.904 1203.87 62.8423C872.257 188.485 532.532 306.231 191.699 422.774C-149.811 539.548 -494.704 653.064 -834.409 771.676C-879.019 787.253 -923.129 803.309 -966.79 819.801C-973.295 822.258 -993.464 828.601 -986.003 827.446C-970.606 825.061 -956.439 821.129 -942.51 816.542C-865.888 791.315 -791.875 763.228 -715.33 737.839C-312.826 604.333 100.261 482.791 511.989 359.735C913.21 239.82 1321.4 130.686 1732.55 23.4905C1743.47 20.6429 1774.98 11.8414 1766.54 16.8483C1741.9 31.4776 1715.75 45.808 1689.27 59.2079C1622.89 92.8024 1551.39 122.876 1480.04 152.574C1277.46 236.893 1068.68 315.089 856.348 390.44C641.591 466.651 424.758 540.699 211.757 618.655C43.9083 680.087 -122.101 743.349 -289.052 805.639C-335.027 822.793 -381.497 839.707 -426.077 858.15C-431.25 860.29 -443.28 867.944 -441.912 864.291C-440.117 859.497 -421.202 852.055 -417.21 850.38C-333.176 815.12 -239.309 786.578 -149.492 757.139C248.822 626.585 660.641 514.036 1077.83 406.607C1303.34 348.535 1527.69 289.132 1750.71 227.769C1754.54 226.716 1797.6 216.697 1791.04 220.124C1688.9 273.475 1584.9 325.485 1482.15 378.409C1246.62 499.714 1031.7 634.364 795.963 755.635" stroke="#5132CB" stroke-width="46" stroke-linecap="round"/>
</g>
</svg>
