<svg width="6" height="12" viewBox="0 0 6 12" fill="none" xmlns="http://www.w3.org/2000/svg">
<path d="M0.5 5.99946C0.5 5.69815 0.618257 5.40887 0.829332 5.19385C0.829361 5.19382 0.82939 5.19379 0.829419 5.19376L5.43901 0.51019L5.44066 0.50849C5.44346 0.505624 5.4468 0.503346 5.45049 0.501789C5.45418 0.500233 5.45814 0.499432 5.46214 0.499432C5.46615 0.499432 5.47011 0.500233 5.4738 0.501789C5.47749 0.503346 5.48083 0.505624 5.48362 0.508493L5.48502 0.509914C5.49421 0.519264 5.49936 0.531849 5.49936 0.544959C5.49936 0.558069 5.49421 0.570654 5.48502 0.580005L0.876197 5.26381C0.875994 5.26402 0.875791 5.26422 0.875587 5.26443C0.682232 5.4602 0.573795 5.72428 0.573795 5.99946C0.573795 6.27466 0.682248 6.53876 0.875629 6.73453C0.875818 6.73472 0.876007 6.73492 0.876197 6.73511L5.48602 11.4189C5.48604 11.4189 5.48605 11.4189 5.48607 11.419C5.49523 11.4283 5.50036 11.4409 5.50036 11.454C5.50036 11.4671 5.49521 11.4797 5.48602 11.489L5.48416 11.4909C5.48136 11.4938 5.47802 11.4961 5.47432 11.4976C5.47062 11.4992 5.46666 11.5 5.46265 11.5C5.45863 11.5 5.45466 11.4992 5.45097 11.4976C5.44728 11.4961 5.44393 11.4938 5.44114 11.4909L5.44114 11.4909L5.439 11.4887L0.829419 6.80516C0.82939 6.80513 0.829361 6.8051 0.829332 6.80507C0.618257 6.59005 0.5 6.30077 0.5 5.99946ZM5.66891 11.9582C5.73417 11.9306 5.79325 11.8903 5.84265 11.8395L5.08265 11.8395C5.13204 11.8903 5.19112 11.9306 5.25638 11.9582C5.32165 11.9858 5.39179 12 5.46265 12C5.5335 12 5.60364 11.9858 5.66891 11.9582Z" fill="black" stroke="white"/>
</svg>
