<svg width="6" height="12" viewBox="0 0 6 12" fill="none" xmlns="http://www.w3.org/2000/svg">
<path d="M5.50049 6.00054C5.50049 6.30185 5.38223 6.59113 5.17116 6.80615C5.17113 6.80618 5.1711 6.80621 5.17107 6.80624L0.561482 11.4898L0.559824 11.4915C0.55703 11.4944 0.55369 11.4967 0.549998 11.4982C0.546309 11.4998 0.542346 11.5006 0.538344 11.5006C0.53434 11.5006 0.530377 11.4998 0.526688 11.4982C0.522996 11.4967 0.519656 11.4944 0.516865 11.4915L0.515469 11.4901C0.50628 11.4807 0.501131 11.4682 0.501131 11.455C0.501131 11.4419 0.50628 11.4293 0.515469 11.42L5.12429 6.73619C5.12449 6.73598 5.1247 6.73578 5.1249 6.73557C5.31826 6.5398 5.42669 6.27572 5.42669 6.00054C5.42669 5.72534 5.31824 5.46124 5.12486 5.26547C5.12467 5.26528 5.12448 5.26508 5.12429 5.26489L0.514468 0.581087C0.514451 0.581069 0.514434 0.581052 0.514417 0.581035C0.50526 0.57169 0.500131 0.559127 0.500131 0.546041C0.500131 0.532931 0.50528 0.520346 0.514468 0.510996L0.516333 0.509088C0.519128 0.506213 0.522473 0.503926 0.526168 0.502365C0.529863 0.500804 0.533833 0.5 0.537843 0.5C0.541853 0.5 0.545824 0.500804 0.549519 0.502365C0.553211 0.503925 0.556555 0.506211 0.559352 0.509088L0.559346 0.509094L0.561486 0.511268L5.17107 5.19484C5.1711 5.19487 5.17113 5.1949 5.17116 5.19493C5.38223 5.40995 5.50049 5.69923 5.50049 6.00054ZM0.331583 0.0417822C0.266314 0.0693569 0.207235 0.109739 0.157843 0.160541L0.917843 0.160541C0.86845 0.109739 0.809373 0.0693569 0.744103 0.0417822C0.678834 0.0142075 0.608698 6.42965e-08 0.537843 6.51414e-08C0.466988 6.59863e-08 0.396852 0.0142075 0.331583 0.0417822Z" fill="black" stroke="white"/>
</svg>
