<svg width="13" height="14" viewBox="0 0 13 14" fill="none" xmlns="http://www.w3.org/2000/svg">
<path d="M1 7.66667C1 6.40933 1 5.78133 1.39067 5.39067C1.78133 5 2.40933 5 3.66667 5H9C10.2573 5 10.8853 5 11.276 5.39067C11.6667 5.78133 11.6667 6.40933 11.6667 7.66667V9C11.6667 10.8853 11.6667 11.8287 11.0807 12.414C10.4953 13 9.552 13 7.66667 13H5C3.11467 13 2.17133 13 1.586 12.414C1 11.8287 1 10.8853 1 9V7.66667Z" stroke="#4725CE" stroke-width="1.2"/>
<path d="M9.00033 4.33333V3.66667C9.00033 2.95942 8.71937 2.28115 8.21928 1.78105C7.71918 1.28095 7.0409 1 6.33366 1C5.62641 1 4.94814 1.28095 4.44804 1.78105C3.94794 2.28115 3.66699 2.95942 3.66699 3.66667V4.33333" stroke="#4725CE" stroke-width="1.2" stroke-linecap="round"/>
<path d="M6.33333 10.3334C7.06971 10.3334 7.66667 9.7364 7.66667 9.00002C7.66667 8.26364 7.06971 7.66669 6.33333 7.66669C5.59695 7.66669 5 8.26364 5 9.00002C5 9.7364 5.59695 10.3334 6.33333 10.3334Z" fill="#4725CE"/>
</svg>
