<svg width="12" height="15" viewBox="0 0 12 15" fill="none" xmlns="http://www.w3.org/2000/svg">
<path fill-rule="evenodd" clip-rule="evenodd" d="M4.90923 2.47288L3.62074 1.11643L4.68198 0L7.59873 3.07137C7.6688 3.14537 7.70815 3.24559 7.70815 3.35008C7.70815 3.45457 7.6688 3.55479 7.59873 3.62879L4.68123 6.70016L3.62149 5.58215L5.08098 4.04568C4.10065 4.26082 3.2165 4.81405 2.56849 5.6178C1.92048 6.42154 1.54565 7.42987 1.50334 8.48315C1.46103 9.53642 1.75366 10.5745 2.33489 11.4329C2.91613 12.2914 3.75276 12.9213 4.71234 13.2228C5.67191 13.5243 6.6996 13.4802 7.63271 13.0975C8.56582 12.7149 9.35102 12.0155 9.86402 11.1101C10.377 10.2047 10.5885 9.14507 10.4649 8.0989C10.3414 7.05273 9.88993 6.07983 9.18198 5.33423L10.2432 4.2178C11.1914 5.21627 11.7945 6.52039 11.9562 7.92195C12.1179 9.3235 11.8289 10.7417 11.1354 11.9501C10.4418 13.1585 9.38367 14.0874 8.12989 14.5886C6.87611 15.0898 5.49897 15.1343 4.21834 14.7151C2.9377 14.2959 1.82741 13.437 1.06472 12.2757C0.302022 11.1144 -0.0690956 9.71753 0.0106103 8.30817C0.0903163 6.89881 0.61625 5.55819 1.50445 4.50034C2.39264 3.44249 3.59189 2.72841 4.91073 2.47209L4.90923 2.47288Z" fill="#4725CE"/>
</svg>
