<svg width="6" height="12" viewBox="0 0 6 12" fill="none" xmlns="http://www.w3.org/2000/svg">
<path d="M5.84265 11.0685L1.23164 6.38346C1.13052 6.28124 1.07379 6.14325 1.07379 5.99946C1.07379 5.85567 1.13052 5.71768 1.23164 5.61546L5.84164 0.930459C5.94272 0.827603 5.99936 0.689166 5.99936 0.544959C5.99936 0.400752 5.94272 0.262315 5.84164 0.159459C5.79227 0.10881 5.73325 0.0685584 5.66808 0.0410745C5.6029 0.0135906 5.53288 -0.000568632 5.46214 -0.000568629C5.39141 -0.000568626 5.32139 0.0135906 5.25621 0.0410745C5.19104 0.0685585 5.13202 0.10881 5.08264 0.159459L0.472645 4.84346C0.169719 5.15198 -2.81192e-07 5.56708 -2.62292e-07 5.99946C-2.43392e-07 6.43184 0.169719 6.84694 0.472645 7.15546L5.08265 11.8395C5.13204 11.8903 5.19112 11.9306 5.25638 11.9582C5.32165 11.9858 5.39179 12 5.46265 12C5.5335 12 5.60364 11.9858 5.66891 11.9582C5.73417 11.9306 5.79325 11.8903 5.84265 11.8395C5.94372 11.7366 6.00036 11.5982 6.00036 11.454C6.00036 11.3098 5.94372 11.1713 5.84265 11.0685Z" fill="#29127D"/>
</svg>
