<svg width="12" height="14" viewBox="0 0 12 14" fill="none" xmlns="http://www.w3.org/2000/svg">
<path fill-rule="evenodd" clip-rule="evenodd" d="M6 0C5.13616 0 4.30769 0.325871 3.69687 0.905926C3.08604 1.48598 2.74288 2.2727 2.74288 3.09302C2.74288 3.91334 3.08604 4.70007 3.69687 5.28012C4.30769 5.86018 5.13616 6.18605 6 6.18605C6.86384 6.18605 7.6923 5.86018 8.30313 5.28012C8.91396 4.70007 9.25712 3.91334 9.25712 3.09302C9.25712 2.2727 8.91396 1.48598 8.30313 0.905926C7.6923 0.325871 6.86384 0 6 0ZM3.77144 3.09302C3.77144 2.53175 4.00624 1.99347 4.42417 1.59659C4.84211 1.19971 5.40895 0.976744 6 0.976744C6.59105 0.976744 7.15789 1.19971 7.57583 1.59659C7.99376 1.99347 8.22856 2.53175 8.22856 3.09302C8.22856 3.6543 7.99376 4.19258 7.57583 4.58946C7.15789 4.98634 6.59105 5.2093 6 5.2093C5.40895 5.2093 4.84211 4.98634 4.42417 4.58946C4.00624 4.19258 3.77144 3.6543 3.77144 3.09302ZM6 7.16279C4.41395 7.16279 2.95202 7.5053 1.86928 8.08354C0.802319 8.65395 3.83325e-05 9.5174 3.83325e-05 10.5814V10.6478C-0.000647377 11.4045 -0.00133315 12.3539 0.87569 13.0324C1.307 13.3658 1.91111 13.6034 2.72711 13.7597C3.54447 13.9173 4.61075 14 6 14C7.38925 14 8.45484 13.9173 9.27358 13.7597C10.0896 13.6034 10.693 13.3658 11.125 13.0324C12.002 12.3539 12.0006 11.4045 12 10.6478V10.5814C12 9.5174 11.1977 8.65395 10.1314 8.08354C9.04798 7.5053 7.58673 7.16279 6 7.16279ZM1.0286 10.5814C1.0286 10.0273 1.45511 9.42558 2.37328 8.93526C3.27567 8.4534 4.55658 8.13953 6.00069 8.13953C7.44342 8.13953 8.72432 8.4534 9.62672 8.93526C10.5456 9.42558 10.9714 10.0273 10.9714 10.5814C10.9714 11.4331 10.944 11.9124 10.4749 12.2744C10.2212 12.4711 9.79609 12.6632 9.06924 12.8025C8.34444 12.9419 7.35359 13.0233 6 13.0233C4.64641 13.0233 3.65487 12.9419 2.93076 12.8025C2.20391 12.6632 1.77877 12.4711 1.52506 12.2751C1.05603 11.9124 1.0286 11.4331 1.0286 10.5814Z" fill="#DED5FF"/>
</svg>
