<svg width="15" height="15" viewBox="0 0 15 15" fill="none" xmlns="http://www.w3.org/2000/svg">
<path d="M3.29408 4.05896H2.52939C2.12377 4.05896 1.73476 4.22009 1.44795 4.50691C1.16113 4.79372 1 5.18273 1 5.58835V12.4706C1 12.8762 1.16113 13.2652 1.44795 13.552C1.73476 13.8388 2.12377 14 2.52939 14H9.41163C9.81724 14 10.2062 13.8388 10.4931 13.552C10.7799 13.2652 10.941 12.8762 10.941 12.4706V11.7059" stroke="#4725CE" stroke-linecap="round" stroke-linejoin="round"/>
<path d="M10.1766 2.52959L12.4707 4.82367M13.5298 3.74163C13.8309 3.44046 14.0001 3.03198 14.0001 2.60606C14.0001 2.18014 13.8309 1.77166 13.5298 1.47049C13.2286 1.16932 12.8201 1.00012 12.3942 1.00012C11.9683 1.00012 11.5598 1.16932 11.2586 1.47049L4.82373 7.88244V10.1765H7.11781L13.5298 3.74163Z" stroke="#4725CE" stroke-linecap="round" stroke-linejoin="round"/>
</svg>
