<svg width="21" height="24" viewBox="0 0 21 24" fill="none" xmlns="http://www.w3.org/2000/svg">
<path d="M12.8335 1.00464V5.25446C12.8335 5.83 13.0628 6.38309 13.4717 6.79082C13.8816 7.19899 14.4366 7.42804 15.0151 7.42782H19.8901" stroke="#4725CE" stroke-linecap="round" stroke-linejoin="round"/>
<path d="M5.10555 6.7885H8.96418M5.10555 11.933H15.3945M5.10555 17.0774H15.3945M20 7.87696V18.0028C19.9765 18.6651 19.8221 19.3162 19.5459 19.9186C19.2696 20.521 18.8769 21.0628 18.3904 21.5128C17.4066 22.4253 16.1007 22.9099 14.7598 22.86H5.78982C5.12174 22.891 4.45414 22.7895 3.82541 22.5616C3.19667 22.3336 2.61919 21.9836 2.12618 21.5317C1.63512 21.0803 1.23853 20.536 0.959382 19.9302C0.680237 19.3245 0.524093 18.6693 0.5 18.0028V5.86078C0.523464 5.19845 0.677772 4.54732 0.95403 3.94491C1.23029 3.3425 1.62304 2.80071 2.10964 2.35078C3.0934 1.43821 4.39926 0.953617 5.74018 1.0035H12.4931C13.5239 1.0002 14.5189 1.38158 15.2834 2.07305L18.7815 5.28996C19.1548 5.61155 19.4561 6.00809 19.6661 6.4538C19.876 6.8995 19.9898 7.3844 20 7.87696Z" stroke="#4725CE" stroke-linecap="round" stroke-linejoin="round"/>
</svg>
