<svg width="12" height="6" viewBox="0 0 12 6" fill="none" xmlns="http://www.w3.org/2000/svg">
<path d="M5.99995 5.5C5.69864 5.5 5.40936 5.38174 5.19434 5.17067C5.19431 5.17064 5.19428 5.17061 5.19425 5.17058L0.510679 0.560993L0.508978 0.559334C0.506113 0.556541 0.503834 0.553201 0.502278 0.549509C0.500721 0.545819 0.49992 0.541857 0.49992 0.537854C0.49992 0.533851 0.500721 0.529887 0.502278 0.526198C0.503834 0.522507 0.506113 0.519166 0.508981 0.516376L0.510402 0.51498C0.519753 0.50579 0.532338 0.500642 0.545448 0.500642C0.558558 0.500642 0.571143 0.50579 0.580493 0.51498L5.2643 5.1238C5.2645 5.12401 5.26471 5.12421 5.26492 5.12441C5.46068 5.31777 5.72477 5.4262 5.99995 5.4262C6.27515 5.4262 6.53925 5.31775 6.73502 5.12437C6.73521 5.12418 6.7354 5.12399 6.7356 5.1238L11.4194 0.51398C11.4194 0.513963 11.4194 0.513946 11.4195 0.513929C11.4288 0.504772 11.4414 0.499642 11.4544 0.499642C11.4676 0.499642 11.4801 0.504791 11.4895 0.51398L11.4914 0.515845C11.4943 0.51864 11.4966 0.521985 11.4981 0.52568C11.4997 0.529375 11.5005 0.533344 11.5005 0.537354C11.5005 0.541365 11.4997 0.545336 11.4981 0.54903C11.4966 0.552723 11.4943 0.556067 11.4914 0.558864L11.4914 0.558857L11.4892 0.560997L6.80564 5.17058C6.80562 5.17061 6.80559 5.17064 6.80556 5.17067C6.59053 5.38174 6.30126 5.5 5.99995 5.5ZM11.9587 0.331095C11.9311 0.265825 11.8907 0.206747 11.8399 0.157354L11.8399 0.917355C11.8907 0.867962 11.9311 0.808885 11.9587 0.743615C11.9863 0.678346 12.0005 0.60821 12.0005 0.537354C12.0005 0.466499 11.9863 0.396364 11.9587 0.331095Z" fill="#DED5FF" stroke="#4725CE"/>
</svg>
