<svg width="16" height="16" viewBox="0 0 16 16" fill="none" xmlns="http://www.w3.org/2000/svg">
<path d="M8.00003 7.22222H11.8889M8.00003 4.11111H11.8889M4.88892 10.3333V1.46667C4.88892 1.3429 4.93808 1.2242 5.0256 1.13668C5.11312 1.04917 5.23182 1 5.35558 1H14.5334C14.6571 1 14.7758 1.04917 14.8633 1.13668C14.9509 1.2242 15 1.3429 15 1.46667V11.8889C15 12.714 14.6722 13.5053 14.0888 14.0888C13.5054 14.6722 12.714 15 11.8889 15" stroke="white" stroke-linecap="round" stroke-linejoin="round"/>
<path d="M2.55556 10.3334H8.31111C8.56856 10.3334 8.78011 10.541 8.80111 10.7977C8.89678 11.9784 9.38444 15 11.8889 15H3.33333C2.71449 15 2.121 14.7542 1.68342 14.3166C1.24583 13.879 1 13.2855 1 12.6667V11.8889C1 11.4764 1.16389 11.0807 1.45561 10.789C1.74733 10.4973 2.143 10.3334 2.55556 10.3334Z" stroke="white" stroke-linecap="round" stroke-linejoin="round"/>
</svg>
