<svg width="12" height="6" viewBox="0 0 12 6" fill="none" xmlns="http://www.w3.org/2000/svg">
<path d="M5.99995 5.50037C5.69864 5.50037 5.40936 5.38211 5.19434 5.17103C5.19431 5.171 5.19428 5.17098 5.19425 5.17095L0.510679 0.561359L0.508978 0.5597C0.506113 0.556907 0.503834 0.553567 0.502278 0.549875C0.500721 0.546185 0.49992 0.542223 0.49992 0.53822C0.49992 0.534217 0.500721 0.530253 0.502278 0.526565C0.503834 0.522873 0.506113 0.519533 0.508981 0.516742L0.510402 0.515346C0.519753 0.506156 0.532338 0.501008 0.545448 0.501008C0.558558 0.501008 0.571143 0.506156 0.580493 0.515346L5.2643 5.12417C5.2645 5.12437 5.26471 5.12458 5.26492 5.12478C5.46068 5.31813 5.72477 5.42657 5.99995 5.42657C6.27515 5.42657 6.53925 5.31812 6.73502 5.12474C6.73521 5.12455 6.7354 5.12436 6.7356 5.12417L11.4194 0.514346C11.4194 0.514329 11.4194 0.514312 11.4195 0.514295C11.4288 0.505138 11.4414 0.500009 11.4544 0.500009C11.4676 0.500009 11.4801 0.505157 11.4895 0.514346L11.4914 0.516211C11.4943 0.519006 11.4966 0.522351 11.4981 0.526046C11.4997 0.529741 11.5005 0.53371 11.5005 0.537721C11.5005 0.541731 11.4997 0.545702 11.4981 0.549396C11.4966 0.553089 11.4943 0.556433 11.4914 0.55923L11.4914 0.559224L11.4892 0.561364L6.80564 5.17095C6.80562 5.17098 6.80559 5.171 6.80556 5.17103C6.59053 5.38211 6.30126 5.50037 5.99995 5.50037ZM11.9587 0.331461C11.9311 0.266191 11.8907 0.207113 11.8399 0.157721L11.8399 0.917721C11.8907 0.868328 11.9311 0.809251 11.9587 0.743981C11.9863 0.678712 12.0005 0.608576 12.0005 0.537721C12.0005 0.466866 11.9863 0.39673 11.9587 0.331461Z" fill="#DED5FF" stroke="#DED5FF"/>
</svg>
