<svg width="10" height="9" viewBox="0 0 10 9" fill="none" xmlns="http://www.w3.org/2000/svg">
<path d="M9.42116 1.23866C9.27483 1.12926 9.10733 1.04681 8.92824 0.996017C8.74916 0.945228 8.56199 0.927099 8.37745 0.942667C8.19291 0.958235 8.01462 1.0072 7.85276 1.08675C7.69091 1.1663 7.54867 1.27488 7.43419 1.40629L4.10024 5.22755L2.85002 3.61255C2.7422 3.46816 2.6048 3.3441 2.44585 3.2476C2.2869 3.15111 2.10958 3.08411 1.92423 3.05052C1.73888 3.01693 1.54922 3.01742 1.36631 3.05197C1.1834 3.08651 1.01091 3.15441 0.858901 3.25171C0.70689 3.34901 0.578404 3.47376 0.480941 3.61868C0.383477 3.76359 0.318988 3.92578 0.291236 4.09577C0.263485 4.26576 0.273026 4.44015 0.319303 4.60877C0.36558 4.77738 0.447667 4.93684 0.560773 5.07785L2.91413 8.11787C3.13641 8.40579 3.46986 8.60039 3.83749 8.664L4.0333 8.68472C4.25229 8.69438 4.46921 8.65724 4.66697 8.57622C4.86474 8.49519 5.03795 8.37249 5.17297 8.21778L9.66275 3.07078C9.77735 2.93952 9.86201 2.78801 9.91189 2.6249C9.96177 2.46179 9.9759 2.29027 9.95347 2.12014C9.93103 1.95001 9.87248 1.7846 9.78114 1.63336C9.68981 1.48211 9.56749 1.34799 9.42116 1.23866Z" fill="white"/>
</svg>
