<svg width="400" height="400" viewBox="0 0 400 400" fill="none" xmlns="http://www.w3.org/2000/svg">
<g clip-path="url(#clip0_98_5534)">
<path d="M399.509 0.483063H96.7129V204.295H399.509V0.483063Z" fill="white"/>
<path d="M399.509 204.779H96.7129C96.5848 204.779 96.4619 204.728 96.3713 204.637C96.2807 204.546 96.2299 204.424 96.2299 204.295V0.483051C96.2299 0.354938 96.2807 0.232072 96.3713 0.141482C96.4619 0.0508927 96.5848 0 96.7129 0L399.509 0C399.637 0.000577987 399.759 0.0517257 399.849 0.142253C399.939 0.23278 399.99 0.355316 399.99 0.483051V204.295C399.99 204.423 399.939 204.546 399.849 204.636C399.759 204.727 399.637 204.778 399.509 204.779ZM97.1938 203.812H399.026V0.963916H97.1938V203.812Z" fill="black"/>
<path d="M387.321 12.3517H108.418V192.427H387.321V12.3517Z" fill="white"/>
<path d="M387.315 192.908H108.413C108.35 192.908 108.287 192.896 108.229 192.872C108.17 192.848 108.117 192.812 108.072 192.768C108.027 192.723 107.991 192.67 107.967 192.611C107.943 192.553 107.93 192.49 107.93 192.427V12.3517C107.93 12.2236 107.981 12.1007 108.072 12.0101C108.162 11.9195 108.285 11.8686 108.413 11.8686H387.315C387.443 11.8686 387.566 11.9195 387.656 12.0101C387.747 12.1007 387.798 12.2236 387.798 12.3517V192.427C387.798 192.49 387.785 192.553 387.761 192.611C387.737 192.67 387.701 192.723 387.656 192.768C387.611 192.812 387.558 192.848 387.5 192.872C387.441 192.896 387.378 192.908 387.315 192.908ZM108.894 191.944H386.834V12.8347H108.901L108.894 191.944Z" fill="black"/>
<path d="M295.891 269.103H200.328C200.265 269.103 200.202 269.09 200.143 269.066C200.085 269.042 200.032 269.006 199.987 268.961C199.942 268.917 199.906 268.863 199.882 268.805C199.858 268.746 199.845 268.683 199.845 268.62V204.295C199.845 204.232 199.858 204.169 199.882 204.111C199.906 204.052 199.942 203.999 199.987 203.954C200.032 203.909 200.085 203.873 200.143 203.849C200.202 203.825 200.265 203.812 200.328 203.812H295.891C295.955 203.812 296.018 203.825 296.076 203.849C296.135 203.873 296.188 203.909 296.233 203.954C296.278 203.999 296.313 204.052 296.338 204.111C296.362 204.169 296.375 204.232 296.375 204.295V268.629C296.372 268.755 296.32 268.876 296.23 268.965C296.14 269.053 296.018 269.103 295.891 269.103ZM200.811 268.139H295.413V204.779H200.809L200.811 268.139Z" fill="black"/>
<path d="M355.814 298.447H140.406C140.312 298.447 140.22 298.419 140.142 298.368C140.063 298.316 140.002 298.243 139.964 298.157C139.926 298.071 139.915 297.976 139.93 297.883C139.946 297.791 139.988 297.705 140.052 297.636L142.395 295.113C150.302 286.617 159.873 279.838 170.512 275.197C181.15 270.557 192.63 268.154 204.236 268.139H291.983C303.59 268.155 315.07 270.557 325.709 275.198C336.348 279.838 345.919 286.617 353.827 295.113L356.168 297.636C356.232 297.705 356.274 297.791 356.289 297.883C356.305 297.976 356.293 298.071 356.256 298.157C356.218 298.243 356.156 298.316 356.078 298.368C355.999 298.419 355.908 298.447 355.814 298.447ZM141.512 297.481H354.708L353.119 295.769C345.302 287.37 335.841 280.668 325.323 276.08C314.806 271.493 303.458 269.118 291.983 269.103H204.236C192.762 269.118 181.414 271.493 170.897 276.08C160.379 280.668 150.918 287.37 143.101 295.769L141.512 297.481Z" fill="black"/>
<path d="M346.138 28.8978H153.525V157.728H346.138V28.8978Z" fill="#FDA4FF"/>
<path d="M346.358 158.211H152.764C152.701 158.211 152.638 158.199 152.58 158.175C152.521 158.151 152.468 158.116 152.424 158.071C152.379 158.026 152.343 157.973 152.319 157.915C152.295 157.856 152.283 157.793 152.283 157.73V28.9218C152.283 28.8585 152.295 28.7957 152.319 28.7371C152.343 28.6785 152.379 28.6253 152.423 28.5804C152.468 28.5355 152.521 28.4999 152.58 28.4756C152.638 28.4513 152.701 28.4388 152.764 28.4388H346.358C346.486 28.4388 346.609 28.4897 346.7 28.5803C346.79 28.6709 346.841 28.7937 346.841 28.9218V157.73C346.841 157.794 346.829 157.856 346.804 157.915C346.78 157.973 346.745 158.026 346.7 158.071C346.655 158.116 346.602 158.151 346.543 158.175C346.484 158.199 346.422 158.211 346.358 158.211ZM153.247 157.247H345.875V29.4049H153.247V157.247Z" fill="black"/>
<path d="M252.056 116.984C266.256 116.984 277.767 105.494 277.767 91.3206C277.767 77.1474 266.256 65.6577 252.056 65.6577C237.857 65.6577 226.345 77.1474 226.345 91.3206C226.345 105.494 237.857 116.984 252.056 116.984Z" fill="white"/>
<path d="M263.215 91.6813L247.145 82.4202V100.942L263.215 91.6813Z" fill="black"/>
<path d="M177.572 36.4146H162.156V47.4832H177.572V36.4146Z" fill="white"/>
<path d="M204.368 36.4146H188.951V47.4832H204.368V36.4146Z" fill="white"/>
<path d="M231.034 36.4146H215.618V47.4832H231.034V36.4146Z" fill="white"/>
<path d="M257.829 36.4146H242.413V47.4832H257.829V36.4146Z" fill="white"/>
<path d="M283.92 36.4146H268.504V47.4832H283.92V36.4146Z" fill="white"/>
<path d="M310.713 36.4146H295.297V47.4832H310.713V36.4146Z" fill="white"/>
<path d="M337.506 36.4146H322.09V47.4832H337.506V36.4146Z" fill="white"/>
<path d="M177.572 140.065H162.156V151.134H177.572V140.065Z" fill="white"/>
<path d="M204.368 140.065H188.951V151.134H204.368V140.065Z" fill="white"/>
<path d="M231.034 140.065H215.618V151.134H231.034V140.065Z" fill="white"/>
<path d="M257.829 140.065H242.413V151.134H257.829V140.065Z" fill="white"/>
<path d="M283.92 140.065H268.504V151.134H283.92V140.065Z" fill="white"/>
<path d="M310.713 140.065H295.297V151.134H310.713V140.065Z" fill="white"/>
<path d="M337.506 140.065H322.09V151.134H337.506V140.065Z" fill="white"/>
<path d="M334.509 372.788C369.302 372.788 397.507 344.638 397.507 309.913C397.507 275.188 369.302 247.038 334.509 247.038C299.717 247.038 271.512 275.188 271.512 309.913C271.512 344.638 299.717 372.788 334.509 372.788Z" fill="black"/>
<path d="M325.478 368.461C360.27 368.461 388.475 340.31 388.475 305.585C388.475 270.86 360.27 242.71 325.478 242.71C290.685 242.71 262.48 270.86 262.48 305.585C262.48 340.31 290.685 368.461 325.478 368.461Z" fill="white"/>
<path d="M325.561 368.955C300.615 368.955 276.91 354.19 266.808 329.786C263.628 322.093 261.996 313.848 262.005 305.523C262.015 297.198 263.666 288.957 266.865 281.271C270.063 273.585 274.746 266.605 280.645 260.731C286.543 254.857 293.543 250.204 301.242 247.038C333.591 233.705 370.784 249.116 384.148 281.404C388.111 291.032 389.642 301.487 388.607 311.847C387.572 322.206 384.002 332.152 378.212 340.805C372.423 349.458 364.591 356.552 355.41 361.462C346.229 366.371 335.981 368.944 325.57 368.955H325.561ZM325.397 243.202C315.138 243.195 305.036 245.719 295.985 250.548C286.934 255.378 279.214 262.365 273.508 270.89C267.802 279.416 264.286 289.217 263.272 299.425C262.258 309.634 263.776 319.935 267.693 329.416C280.869 361.206 317.487 376.386 349.348 363.252C356.931 360.135 363.824 355.552 369.633 349.768C375.442 343.983 380.053 337.11 383.203 329.541C386.353 321.972 387.979 313.857 387.988 305.659C387.998 297.46 386.39 289.341 383.258 281.765C373.311 257.735 349.96 243.193 325.397 243.193V243.202Z" fill="black"/>
<path d="M324.147 333.661C323.711 334.159 323.251 334.635 322.767 335.086C317.825 334.055 313.209 331.831 309.321 328.609C305.433 325.387 302.391 321.265 300.46 316.599C299.561 314.445 298.917 312.193 298.541 309.889C301.746 306.72 306.052 304.912 310.559 304.841C315.066 304.771 319.427 306.443 322.73 309.51C326.034 312.577 328.025 316.801 328.289 321.301C328.553 325.801 327.069 330.229 324.147 333.661Z" fill="#4ADA85"/>
<path d="M309.467 341.482C305.852 341.492 302.31 340.461 299.264 338.512C296.219 336.563 293.799 333.779 292.293 330.492C290.787 327.205 290.259 323.554 290.772 319.975C291.285 316.396 292.817 313.04 295.186 310.309C295.472 309.99 295.789 309.638 296.119 309.323C303.074 302.366 314.365 301.957 321.819 308.401C323.691 310.018 325.225 311.99 326.334 314.201C327.443 316.413 328.105 318.821 328.282 321.289C328.459 323.757 328.148 326.235 327.366 328.583C326.584 330.93 325.347 333.1 323.725 334.968C323.257 335.503 322.761 336.014 322.241 336.498C318.76 339.705 314.2 341.484 309.467 341.482ZM309.467 304.788C307.114 304.782 304.783 305.24 302.608 306.136C300.433 307.033 298.455 308.35 296.79 310.011C296.477 310.309 296.173 310.647 295.916 310.947C294.377 312.719 293.204 314.778 292.463 317.005C291.722 319.232 291.429 321.583 291.599 323.923C291.769 326.264 292.399 328.548 293.454 330.644C294.509 332.741 295.967 334.608 297.745 336.14C301.069 339.02 305.337 340.577 309.735 340.512C314.132 340.448 318.353 338.768 321.592 335.792C322.087 335.331 322.558 334.844 323.004 334.334C325.251 331.747 326.706 328.567 327.194 325.175C327.682 321.783 327.184 318.321 325.757 315.205C324.331 312.089 322.038 309.449 319.151 307.601C316.265 305.753 312.908 304.776 309.48 304.785L309.467 304.788Z" fill="black"/>
<path d="M347.737 328.647C345.339 328.109 343.078 327.08 341.096 325.627C339.114 324.174 337.453 322.327 336.218 320.201C334.983 318.076 334.201 315.719 333.92 313.277C333.639 310.835 333.865 308.362 334.585 306.011C335.304 303.661 336.502 301.485 338.102 299.619C339.702 297.753 341.671 296.238 343.884 295.169C346.097 294.1 348.507 293.499 350.963 293.405C353.419 293.311 355.868 293.725 358.157 294.622C360.045 300.683 360.06 307.173 358.201 313.243C356.342 319.314 352.696 324.682 347.737 328.647Z" fill="#4ADA85"/>
<path d="M353.062 330.584C350.291 330.587 347.553 329.979 345.044 328.803C342.535 327.627 340.316 325.913 338.546 323.781C336.775 321.649 335.497 319.153 334.802 316.471C334.107 313.788 334.012 310.985 334.524 308.262C335.037 305.539 336.143 302.962 337.766 300.716C339.388 298.469 341.486 296.608 343.91 295.265C346.334 293.923 349.024 293.131 351.789 292.947C354.554 292.763 357.325 293.192 359.906 294.202C362.721 295.289 365.233 297.039 367.23 299.302C369.226 301.566 370.648 304.277 371.376 307.206C372.103 310.136 372.115 313.197 371.409 316.131C370.703 319.066 369.301 321.787 367.322 324.066C365.55 326.11 363.36 327.75 360.9 328.874C358.44 329.999 355.767 330.582 353.062 330.584ZM353.049 293.863C350.482 293.863 347.945 294.414 345.61 295.479C343.274 296.543 341.194 298.097 339.51 300.033C337.185 302.711 335.706 306.018 335.261 309.537C334.816 313.055 335.425 316.626 337.011 319.798C338.596 322.971 341.087 325.601 344.168 327.357C347.249 329.113 350.782 329.916 354.319 329.663C357.857 329.411 361.24 328.114 364.04 325.938C366.84 323.763 368.932 320.805 370.051 317.44C371.17 314.074 371.265 310.453 370.325 307.033C369.384 303.614 367.451 300.55 364.769 298.23C361.507 295.424 357.351 293.874 353.049 293.859V293.863Z" fill="black"/>
<path d="M327.266 290.807C324.276 294.246 320.045 296.359 315.5 296.684C310.955 297.008 306.467 295.518 303.019 292.539C302.209 291.838 301.465 291.064 300.796 290.228C303.56 284.861 307.859 280.437 313.145 277.521C318.43 274.604 324.464 273.325 330.479 273.848C331.492 276.706 331.728 279.782 331.163 282.762C330.599 285.741 329.254 288.518 327.266 290.807Z" fill="#4ADA85"/>
<path d="M314.027 296.853C309.493 296.861 305.109 295.231 301.682 292.263C300.794 291.493 299.979 290.645 299.244 289.728C296.573 286.377 295.119 282.218 295.121 277.932C295.122 273.647 296.578 269.489 299.251 266.14C301.924 262.79 305.655 260.447 309.833 259.495C314.012 258.543 318.389 259.038 322.25 260.899C326.11 262.759 329.224 265.876 331.082 269.738C332.939 273.599 333.431 277.977 332.475 282.155C331.52 286.332 329.174 290.062 325.823 292.732C322.471 295.402 318.312 296.855 314.027 296.853ZM302.313 291.533C305.792 294.524 310.289 296.061 314.871 295.824C319.453 295.586 323.767 293.593 326.918 290.259C330.069 286.924 331.815 282.503 331.792 277.916C331.77 273.328 329.981 268.925 326.797 265.621C323.614 262.317 319.28 260.367 314.696 260.174C310.112 259.982 305.63 261.563 302.181 264.588C298.732 267.613 296.58 271.851 296.174 276.421C295.767 280.991 297.136 285.542 299.996 289.129C300.694 289.999 301.47 290.803 302.313 291.533Z" fill="black"/>
<path d="M255.518 282.193V304.536H280.043V282.193H255.518Z" fill="#020202"/>
<path d="M268.847 307.139L269.238 307.576C273.726 312.641 278.27 313.288 285.336 316.785L300.331 290.945L308.232 249.709L305.336 241.908L299.039 243.25L287.387 264.76L274.618 278.703L269.177 281.087L268.399 285.446L271.166 289.715L275.437 290.473C277.186 295.05 278.226 296.012 277.859 298.064C277.839 298.108 277.568 301.607 274.08 302.116L270.489 302.641C270.003 302.712 269.546 302.913 269.165 303.223C268.785 303.533 268.495 303.94 268.327 304.401C268.158 304.862 268.118 305.36 268.21 305.842C268.301 306.324 268.522 306.772 268.847 307.139Z" fill="white"/>
<path d="M285.328 317.272C285.252 317.273 285.177 317.256 285.109 317.222C283.098 316.228 281.253 315.45 279.627 314.761C275.444 312.995 272.139 311.598 268.865 307.902L268.473 307.465C268.09 307.032 267.831 306.504 267.724 305.936C267.616 305.367 267.665 304.781 267.863 304.238C268.062 303.695 268.405 303.216 268.854 302.852C269.303 302.487 269.842 302.252 270.414 302.169L274.006 301.647C276.628 301.262 277.234 299.004 277.369 298.051C277.372 298.03 277.377 298.008 277.383 297.988C277.601 296.748 277.24 295.937 276.449 294.163C276.073 293.319 275.61 292.283 275.079 290.908L271.077 290.195C271.011 290.183 270.949 290.157 270.894 290.119C270.839 290.082 270.793 290.033 270.758 289.977L267.99 285.708C267.923 285.606 267.898 285.483 267.92 285.363L268.699 281.004C268.712 280.926 268.745 280.852 268.795 280.79C268.844 280.727 268.908 280.678 268.981 280.646L274.318 278.309L286.989 264.476L298.613 243.018C298.646 242.957 298.692 242.904 298.748 242.862C298.804 242.82 298.868 242.791 298.936 242.776L305.233 241.434C305.347 241.411 305.465 241.429 305.566 241.485C305.668 241.541 305.746 241.631 305.786 241.74L308.682 249.538C308.713 249.622 308.72 249.712 308.702 249.798L300.803 291.035C300.791 291.088 300.772 291.138 300.746 291.186L285.752 317.023C285.71 317.099 285.649 317.162 285.574 317.206C285.499 317.25 285.414 317.273 285.328 317.272ZM269.199 306.82L269.59 307.257C272.72 310.792 275.929 312.149 280.008 313.869C281.538 314.525 283.258 315.242 285.138 316.156L299.865 290.777L307.723 249.753L305.021 242.47L299.338 243.676L287.791 264.992C287.773 265.027 287.75 265.059 287.723 265.088L274.967 279.035C274.922 279.085 274.867 279.124 274.806 279.151L269.61 281.426L268.911 285.343L271.459 289.277L275.522 290.001C275.605 290.016 275.681 290.052 275.746 290.105C275.81 290.158 275.86 290.227 275.89 290.305C276.451 291.782 276.941 292.882 277.337 293.765C278.156 295.607 278.609 296.622 278.336 298.152C278.337 298.156 278.337 298.16 278.336 298.165C278.2 299.109 277.509 302.099 274.152 302.595L270.561 303.12C270.161 303.178 269.785 303.343 269.471 303.598C269.157 303.853 268.919 304.188 268.78 304.567C268.641 304.946 268.607 305.356 268.681 305.753C268.756 306.15 268.936 306.52 269.203 306.822L269.199 306.82Z" fill="black"/>
<path d="M305.327 241.914L305.362 244.537C305.453 251.652 304.736 258.754 303.225 265.706L302.621 268.487C299.602 282.386 295.049 295.906 289.046 308.801L285.33 316.785L288.37 321.622L297.568 325.058L304.409 314.785C304.409 314.785 305.88 306.779 307.732 296.617L305.708 293.719L306.39 289.905L309.325 287.863C312.206 271.977 315.264 254.922 315.137 254.738C314.897 254.397 312.077 244.651 312.077 244.651L309.454 242.647L305.327 241.914Z" fill="#020202"/>
<path d="M279.911 280.932C279.819 280.932 279.729 280.905 279.651 280.855C279.574 280.806 279.512 280.734 279.474 280.65L277.131 275.533C277.098 275.475 277.077 275.411 277.07 275.344C277.063 275.278 277.07 275.21 277.091 275.146C277.111 275.083 277.145 275.024 277.189 274.973C277.233 274.923 277.288 274.883 277.349 274.855C277.41 274.827 277.476 274.812 277.543 274.811C277.61 274.81 277.676 274.823 277.738 274.849C277.8 274.875 277.855 274.913 277.901 274.962C277.947 275.01 277.983 275.068 278.005 275.131L280.349 280.25C280.401 280.367 280.406 280.499 280.361 280.619C280.316 280.738 280.226 280.835 280.11 280.889C280.048 280.917 279.98 280.932 279.911 280.932Z" fill="black"/>
<path d="M283.273 277.466C283.181 277.465 283.091 277.438 283.013 277.389C282.936 277.339 282.874 277.267 282.836 277.184L280.495 272.067C280.462 272.009 280.441 271.944 280.434 271.878C280.427 271.811 280.434 271.744 280.454 271.68C280.475 271.616 280.508 271.557 280.553 271.507C280.597 271.457 280.652 271.416 280.713 271.388C280.773 271.36 280.839 271.345 280.907 271.344C280.974 271.343 281.04 271.356 281.102 271.382C281.164 271.408 281.219 271.446 281.265 271.495C281.311 271.544 281.347 271.602 281.369 271.665L283.712 276.784C283.765 276.9 283.77 277.032 283.725 277.152C283.68 277.272 283.59 277.369 283.474 277.422C283.411 277.451 283.343 277.466 283.273 277.466Z" fill="black"/>
<path d="M286.617 273.999C286.525 273.999 286.435 273.973 286.358 273.923C286.28 273.874 286.219 273.803 286.18 273.719L283.837 268.6C283.796 268.486 283.8 268.362 283.847 268.25C283.894 268.139 283.98 268.049 284.09 267.999C284.2 267.948 284.325 267.941 284.44 267.978C284.555 268.015 284.652 268.093 284.711 268.198L287.052 273.317C287.079 273.375 287.094 273.437 287.096 273.5C287.098 273.563 287.088 273.626 287.066 273.686C287.044 273.745 287.01 273.799 286.967 273.846C286.924 273.892 286.872 273.929 286.814 273.955C286.753 273.984 286.685 273.999 286.617 273.999Z" fill="black"/>
<path d="M238.321 365.022L252.681 347.884L271.494 363.584L257.132 380.725L238.321 365.022Z" fill="#020202"/>
<path d="M244.452 363.49L244.083 363.954C239.873 369.252 240.032 373.829 237.825 381.387L265.942 391.586L308.005 392.113L315.192 387.898L312.763 381.947L289.5 374.272L273.507 364.172L270.207 359.252H265.772L262.056 362.721V367.049C257.846 369.562 257.083 370.764 254.992 370.764C254.946 370.751 251.449 371.099 250.332 367.761L249.184 364.323C249.029 363.856 248.75 363.439 248.377 363.117C248.005 362.795 247.552 362.58 247.067 362.495C246.581 362.41 246.082 362.457 245.622 362.632C245.162 362.807 244.758 363.104 244.452 363.49Z" fill="white"/>
<path d="M308.005 392.596L265.944 392.069C265.89 392.069 265.836 392.06 265.785 392.04L237.661 381.85C237.546 381.809 237.451 381.725 237.395 381.616C237.34 381.506 237.327 381.38 237.361 381.263C237.991 379.112 238.435 377.162 238.828 375.444C239.836 371.022 240.634 367.532 243.707 363.663L244.074 363.202C244.434 362.749 244.909 362.401 245.45 362.196C245.99 361.991 246.576 361.935 247.146 362.035C247.716 362.135 248.248 362.387 248.686 362.764C249.124 363.142 249.453 363.63 249.637 364.179L250.784 367.617C251.626 370.135 253.962 370.334 254.922 370.292H254.987C256.246 370.292 256.983 369.796 258.596 368.705C259.361 368.187 260.303 367.551 261.566 366.788V362.734C261.566 362.668 261.58 362.602 261.606 362.541C261.632 362.48 261.671 362.425 261.719 362.38L265.435 358.913C265.524 358.83 265.641 358.783 265.763 358.782H270.198C270.278 358.782 270.356 358.802 270.426 358.841C270.495 358.879 270.555 358.934 270.598 359.001L273.842 363.835L289.699 373.851L312.905 381.501C312.972 381.522 313.032 381.558 313.083 381.606C313.134 381.653 313.174 381.712 313.2 381.776L315.629 387.728C315.672 387.835 315.676 387.955 315.639 388.064C315.601 388.174 315.526 388.266 315.425 388.325L308.239 392.539C308.167 392.578 308.086 392.597 308.005 392.596ZM266.038 391.107L307.885 391.629L314.595 387.695L312.409 382.336L289.358 374.731C289.321 374.72 289.286 374.703 289.253 374.681L273.249 364.583C273.193 364.548 273.144 364.501 273.107 364.445L269.951 359.739H265.962L262.53 362.935V367.053C262.53 367.136 262.509 367.218 262.468 367.29C262.427 367.363 262.368 367.423 262.296 367.466C260.935 368.279 259.938 368.955 259.136 369.497C257.464 370.627 256.544 371.245 254.983 371.245H254.97C254.006 371.274 250.937 371.127 249.864 367.912L248.716 364.476C248.588 364.092 248.358 363.75 248.051 363.487C247.744 363.223 247.372 363.046 246.973 362.976C246.575 362.906 246.165 362.945 245.786 363.089C245.408 363.232 245.075 363.475 244.824 363.792L244.456 364.255C241.521 367.949 240.741 371.348 239.764 375.649C239.394 377.265 238.979 379.083 238.408 381.09L266.038 391.107Z" fill="black"/>
<path d="M315.185 387.901L312.597 388.395C305.596 389.732 298.466 390.275 291.343 390.012L285.041 389.778C273.099 389.339 261.242 387.579 249.687 384.532L237.818 381.4L233.58 385.236L231.805 394.878L243.141 399.795C243.141 399.795 251.296 399.835 261.645 399.872L264.148 397.374H268.03L270.559 399.9L304.252 399.798L313.666 395.028L315.183 392.102L315.185 387.901Z" fill="#020202"/>
<path d="M272.72 370.172C272.618 370.171 272.519 370.138 272.437 370.078C272.356 370.017 272.295 369.932 272.265 369.835C272.234 369.737 272.235 369.633 272.268 369.536C272.301 369.44 272.364 369.356 272.447 369.298L277.083 366.098C277.135 366.058 277.194 366.028 277.258 366.012C277.322 365.995 277.388 365.992 277.453 366.002C277.518 366.012 277.58 366.035 277.636 366.07C277.691 366.105 277.739 366.151 277.777 366.205C277.814 366.259 277.84 366.32 277.853 366.384C277.866 366.448 277.865 366.515 277.852 366.579C277.838 366.643 277.812 366.704 277.774 366.758C277.736 366.811 277.688 366.857 277.632 366.891L273 370.087C272.918 370.143 272.82 370.173 272.72 370.172Z" fill="black"/>
<path d="M276.729 372.858C276.628 372.857 276.529 372.823 276.448 372.762C276.367 372.702 276.307 372.617 276.276 372.52C276.246 372.424 276.246 372.32 276.278 372.224C276.31 372.127 276.371 372.043 276.454 371.984L281.087 368.78C281.14 368.744 281.198 368.719 281.26 368.705C281.322 368.692 281.386 368.691 281.448 368.703C281.51 368.714 281.57 368.738 281.623 368.772C281.676 368.807 281.721 368.851 281.757 368.903C281.793 368.955 281.818 369.014 281.832 369.076C281.845 369.138 281.846 369.202 281.834 369.264C281.823 369.326 281.799 369.385 281.765 369.438C281.73 369.491 281.686 369.537 281.634 369.573L276.998 372.773C276.919 372.827 276.825 372.857 276.729 372.858Z" fill="black"/>
<path d="M280.736 375.542C280.634 375.542 280.535 375.509 280.453 375.448C280.371 375.387 280.31 375.302 280.28 375.205C280.249 375.108 280.251 375.003 280.283 374.907C280.316 374.81 280.379 374.727 280.462 374.668L285.098 371.468C285.15 371.428 285.21 371.399 285.273 371.382C285.337 371.366 285.403 371.362 285.468 371.372C285.533 371.382 285.595 371.405 285.651 371.44C285.706 371.475 285.754 371.521 285.792 371.575C285.829 371.629 285.855 371.69 285.868 371.754C285.881 371.819 285.881 371.885 285.867 371.949C285.854 372.014 285.827 372.075 285.789 372.128C285.751 372.182 285.703 372.227 285.647 372.262L281.009 375.461C280.928 375.516 280.833 375.544 280.736 375.542Z" fill="black"/>
<path d="M258.305 341.58L192.04 288.268L134.773 345.401H107.159V394.362H114.409C125.458 394.364 136.057 389.984 143.881 382.183L192.302 333.893L235.842 368.904L258.305 341.58Z" fill="#FED101"/>
<path d="M192.291 334.367C192.181 334.367 192.075 334.33 191.99 334.26L183.988 327.827C183.935 327.789 183.892 327.74 183.859 327.684C183.826 327.628 183.805 327.565 183.796 327.501C183.788 327.436 183.793 327.371 183.811 327.308C183.828 327.246 183.859 327.187 183.899 327.137C183.94 327.086 183.991 327.044 184.048 327.014C184.106 326.983 184.168 326.964 184.233 326.958C184.298 326.953 184.363 326.96 184.425 326.98C184.487 327 184.544 327.033 184.593 327.076L192.593 333.508C192.671 333.571 192.727 333.656 192.754 333.752C192.782 333.848 192.778 333.95 192.745 334.044C192.712 334.138 192.651 334.22 192.57 334.278C192.488 334.336 192.391 334.367 192.291 334.367Z" fill="black"/>
<path d="M259.094 277.28L167.879 277.4C161.24 277.412 154.875 280.05 150.174 284.738L108.107 326.717H92.3523V353.973H115.939C122.705 353.977 129.195 351.295 133.986 346.518L166.502 314.064C169.409 311.164 173.347 309.537 177.452 309.537H259.103L259.094 277.28Z" fill="#FED101"/>
<path d="M176.775 277.389L167.879 277.4C161.24 277.412 154.875 280.05 150.174 284.738L145.776 289.127C150.338 290.41 156.316 290.145 162.355 288.034C169.004 285.715 174.204 281.686 176.775 277.389Z" fill="#FCB503"/>
<path d="M115.797 354.415H114.852C114.786 354.419 114.72 354.41 114.658 354.388C114.596 354.366 114.538 354.331 114.49 354.286C114.442 354.241 114.403 354.186 114.377 354.125C114.351 354.065 114.337 353.999 114.337 353.933C114.337 353.867 114.351 353.801 114.377 353.741C114.403 353.68 114.442 353.625 114.49 353.58C114.538 353.535 114.596 353.5 114.658 353.478C114.72 353.456 114.786 353.447 114.852 353.451H115.797C119.142 353.461 122.455 352.808 125.547 351.53C128.638 350.252 131.445 348.375 133.807 346.006L166.143 313.732C167.626 312.243 169.389 311.064 171.331 310.261C173.272 309.458 175.354 309.048 177.454 309.054H258.614V277.761L167.881 277.883C164.654 277.878 161.458 278.511 158.476 279.746C155.495 280.981 152.787 282.793 150.509 285.079L135.156 300.403C135.112 300.452 135.059 300.492 134.999 300.52C134.94 300.548 134.875 300.563 134.809 300.565C134.743 300.567 134.678 300.555 134.617 300.531C134.555 300.507 134.5 300.47 134.453 300.424C134.407 300.377 134.37 300.321 134.346 300.26C134.322 300.199 134.31 300.134 134.312 300.068C134.314 300.002 134.329 299.937 134.357 299.878C134.385 299.818 134.425 299.765 134.474 299.721L149.827 284.397C152.194 282.022 155.008 280.139 158.106 278.855C161.204 277.571 164.525 276.913 167.879 276.917L259.094 276.797C259.158 276.797 259.221 276.809 259.279 276.833C259.338 276.857 259.391 276.892 259.436 276.937C259.481 276.982 259.516 277.035 259.541 277.093C259.565 277.152 259.577 277.214 259.577 277.278V309.537C259.577 309.665 259.527 309.788 259.436 309.879C259.345 309.969 259.223 310.02 259.094 310.02H177.454C175.48 310.015 173.525 310.4 171.701 311.154C169.876 311.908 168.219 313.016 166.825 314.414L134.489 346.688C132.038 349.147 129.124 351.095 125.916 352.421C122.707 353.747 119.268 354.425 115.797 354.415Z" fill="black"/>
<path d="M46.974 284.224C54.6793 284.224 60.9256 278.117 60.9256 270.583C60.9256 263.049 54.6793 256.941 46.974 256.941C39.2687 256.941 33.0223 263.049 33.0223 270.583C33.0223 278.117 39.2687 284.224 46.974 284.224Z" fill="black"/>
<path d="M50.8974 282.217H40.1326V295.749H50.8974V282.217Z" fill="#FDA4FF"/>
<path d="M40.1326 286.292V282.217H50.8974V291.21C49.1896 291.552 47.4225 291.451 45.7652 290.915C42.2855 289.769 40.5785 287.052 40.1326 286.292Z" fill="black"/>
<path d="M46.9739 288.595C51.7555 288.595 55.6317 284.32 55.6317 279.046C55.6317 273.772 51.7555 269.496 46.9739 269.496C42.1924 269.496 38.3162 273.772 38.3162 279.046C38.3162 284.32 42.1924 288.595 46.9739 288.595Z" fill="#FDA4FF"/>
<path d="M43.2778 283.19C43.9693 283.826 44.8134 284.273 45.7283 284.486C46.6432 284.7 47.5977 284.674 48.4994 284.41C49.4011 284.146 50.2192 283.653 50.8745 282.98C51.5298 282.307 52 281.476 52.2394 280.567L43.2778 283.19Z" fill="white"/>
<path d="M110.365 324.464L108.107 326.717H92.3523L107.159 394.359H114.409C120.044 394.359 125.62 393.217 130.802 391.002L110.365 324.464Z" fill="#020202"/>
<path d="M120.404 264.935L124.876 242.557C124.876 242.557 123.864 238.229 127.997 235.082C128.957 234.352 131.058 233.025 132.848 231.923C134.88 230.673 136.737 229.16 138.373 227.423L140.249 225.432C140.703 224.951 141.325 224.663 141.986 224.63C142.647 224.596 143.295 224.818 143.796 225.25L144.015 225.44C144.522 225.877 144.837 226.495 144.894 227.162C144.95 227.829 144.743 228.492 144.316 229.008L138.598 235.925L142.662 237.499C144.748 238.308 147.019 238.519 149.219 238.109L158.124 236.638C158.839 236.519 159.572 236.663 160.19 237.043C160.807 237.423 161.265 238.014 161.481 238.706L161.557 238.951L166.252 237.689C166.92 237.523 167.625 237.62 168.223 237.96C168.821 238.301 169.264 238.858 169.461 239.517C169.658 240.176 169.593 240.885 169.281 241.498C168.968 242.111 168.432 242.579 167.782 242.806L138.942 253.184L135.954 268.032L120.404 264.935Z" fill="#FDA4FF"/>
<path d="M143.42 236.975H200.588L227.475 190.919H170.305L143.42 236.975Z" fill="black"/>
<path d="M200.588 236.979H97.7992V242.793H200.588V236.979Z" fill="black"/>
<path d="M189.729 215.496C190.33 213.302 189.125 211.059 187.038 210.487C184.95 209.915 182.77 211.231 182.169 213.425C181.568 215.62 182.773 217.863 184.86 218.435C186.948 219.006 189.128 217.691 189.729 215.496Z" fill="white"/>
<path d="M135.954 268.513C135.922 268.516 135.891 268.516 135.86 268.513L120.301 265.416C120.176 265.39 120.066 265.316 119.995 265.21C119.924 265.103 119.898 264.973 119.923 264.847L124.376 242.568C124.238 241.838 123.683 237.759 127.698 234.699C128.498 234.089 130.142 233.018 132.585 231.515C134.585 230.289 136.413 228.804 138.024 227.099L139.899 225.108C140.437 224.534 141.176 224.191 141.962 224.15C142.748 224.11 143.518 224.375 144.113 224.89L144.332 225.082C144.93 225.604 145.302 226.338 145.369 227.13C145.435 227.921 145.192 228.707 144.69 229.322L139.398 235.724L142.839 237.056C144.838 237.832 147.014 238.034 149.123 237.641L158.038 236.168C158.833 236.039 159.648 236.187 160.345 236.588C161.043 236.99 161.581 237.619 161.868 238.371L166.121 237.23C166.907 237.036 167.738 237.152 168.441 237.553C169.144 237.955 169.666 238.611 169.898 239.386C170.131 240.162 170.056 240.997 169.69 241.719C169.324 242.441 168.694 242.995 167.931 243.265L139.348 253.547L136.434 268.126C136.412 268.237 136.352 268.336 136.264 268.407C136.176 268.477 136.066 268.515 135.954 268.513ZM120.964 264.554L135.575 267.464L138.448 253.09C138.464 253.008 138.501 252.932 138.555 252.869C138.61 252.806 138.679 252.758 138.758 252.73L167.61 242.352C168.166 242.186 168.633 241.806 168.909 241.296C169.185 240.785 169.247 240.186 169.081 239.63C168.915 239.074 168.535 238.607 168.025 238.331C167.515 238.055 166.916 237.993 166.36 238.159L161.68 239.416C161.559 239.448 161.431 239.433 161.322 239.372C161.213 239.312 161.131 239.212 161.094 239.093L161.02 238.848C160.836 238.269 160.45 237.775 159.932 237.456C159.415 237.138 158.8 237.016 158.2 237.112L149.287 238.586C147.005 239.008 144.651 238.788 142.487 237.949L138.421 236.376C138.35 236.348 138.286 236.304 138.235 236.247C138.185 236.19 138.148 236.122 138.128 236.048C138.107 235.973 138.105 235.894 138.122 235.817C138.139 235.741 138.174 235.67 138.225 235.611L143.943 228.693C144.285 228.272 144.451 227.736 144.405 227.195C144.36 226.655 144.106 226.154 143.698 225.797L143.479 225.604C143.073 225.253 142.546 225.072 142.009 225.099C141.472 225.127 140.967 225.361 140.598 225.753L138.723 227.744C137.058 229.516 135.166 231.059 133.097 232.334C130.717 233.801 129.053 234.883 128.288 235.464C124.448 238.389 125.335 242.408 125.344 242.459C125.359 242.526 125.359 242.596 125.344 242.664L120.964 264.554Z" fill="black"/>
<path d="M136.937 238.395C136.824 238.396 136.715 238.355 136.629 238.282C136.58 238.241 136.54 238.192 136.51 238.136C136.481 238.08 136.463 238.019 136.457 237.956C136.451 237.893 136.458 237.829 136.477 237.769C136.496 237.708 136.527 237.652 136.568 237.604L138.316 235.515C138.401 235.424 138.517 235.369 138.641 235.361C138.764 235.353 138.887 235.393 138.981 235.473C139.076 235.553 139.137 235.666 139.151 235.789C139.165 235.913 139.13 236.037 139.055 236.135L137.307 238.223C137.261 238.276 137.205 238.32 137.141 238.349C137.077 238.379 137.008 238.395 136.937 238.395Z" fill="black"/>
<path d="M147.857 241.261L150.38 240.651C151.988 240.257 153.448 239.406 154.583 238.201L160.793 231.598C161.211 231.151 161.786 230.882 162.397 230.847C163.008 230.813 163.61 231.014 164.076 231.411C164.543 231.807 164.839 232.368 164.904 232.977C164.969 233.586 164.796 234.196 164.423 234.682L158.22 242.714C157.719 243.364 157.092 243.905 156.377 244.308L152.526 246.478L147.857 241.261Z" fill="#FDA4FF"/>
<path d="M156.386 244.782C156.28 244.782 156.176 244.747 156.092 244.681C156.008 244.616 155.947 244.525 155.92 244.422C155.893 244.319 155.9 244.21 155.942 244.112C155.983 244.014 156.055 243.932 156.148 243.879C156.807 243.51 157.385 243.01 157.846 242.411L164.051 234.378C164.357 233.991 164.5 233.501 164.452 233.011C164.403 232.52 164.165 232.068 163.79 231.749C163.414 231.43 162.929 231.27 162.437 231.301C161.945 231.333 161.485 231.555 161.153 231.919L156.406 237.007C156.319 237.101 156.198 237.156 156.071 237.16C155.943 237.165 155.819 237.118 155.726 237.031C155.633 236.944 155.578 236.824 155.573 236.697C155.569 236.569 155.615 236.445 155.702 236.352L160.449 231.259C160.942 230.679 161.645 230.319 162.403 230.257C163.162 230.196 163.913 230.438 164.493 230.931C165.073 231.424 165.433 232.127 165.494 232.885C165.556 233.643 165.314 234.395 164.821 234.975L158.618 243.005C158.078 243.707 157.401 244.292 156.629 244.725C156.555 244.766 156.471 244.786 156.386 244.782Z" fill="black"/>
<path d="M141.613 244.199L144.017 243.169C145.539 242.517 146.838 241.436 147.757 240.059L152.784 232.522C153.13 232.028 153.651 231.683 154.241 231.558C154.831 231.432 155.447 231.534 155.965 231.844C156.482 232.154 156.863 232.649 157.031 233.228C157.199 233.808 157.141 234.43 156.869 234.968L152.08 243.912C151.693 244.636 151.164 245.274 150.526 245.79L147.088 248.566L141.613 244.199Z" fill="#FDA4FF"/>
<path d="M149.287 247.822C149.186 247.823 149.089 247.792 149.007 247.734C148.925 247.676 148.863 247.594 148.83 247.499C148.797 247.404 148.794 247.302 148.822 247.205C148.849 247.109 148.907 247.024 148.985 246.961C150.448 245.797 151.641 244.33 152.482 242.66L156.438 234.75C156.686 234.318 156.755 233.806 156.63 233.325C156.506 232.843 156.197 232.429 155.771 232.172C155.345 231.915 154.835 231.835 154.351 231.949C153.867 232.063 153.446 232.362 153.18 232.782L148.152 240.319C147.181 241.772 145.808 242.911 144.2 243.597L139.112 245.346C139.052 245.367 138.989 245.375 138.926 245.371C138.863 245.367 138.801 245.351 138.744 245.323C138.687 245.295 138.636 245.257 138.595 245.209C138.553 245.162 138.521 245.106 138.5 245.047C138.48 244.987 138.471 244.923 138.475 244.86C138.479 244.797 138.495 244.735 138.523 244.679C138.551 244.622 138.59 244.571 138.637 244.529C138.684 244.487 138.74 244.455 138.8 244.435L143.855 242.699C145.278 242.082 146.492 241.067 147.352 239.777L152.38 232.238C152.786 231.622 153.415 231.187 154.135 231.022C154.855 230.858 155.61 230.978 156.244 231.357C156.878 231.736 157.341 232.344 157.537 233.056C157.733 233.768 157.648 234.528 157.298 235.178L153.348 243.077C152.446 244.872 151.167 246.449 149.597 247.702C149.511 247.778 149.401 247.821 149.287 247.822Z" fill="black"/>
<path d="M108.112 326.641H106.684C102.553 326.642 98.5892 325.009 95.6572 322.099L68.9648 295.623H22.1898C19.3408 295.62 16.5191 296.178 13.8859 297.266C11.2526 298.354 8.85944 299.949 6.84294 301.962C4.82645 303.975 3.22615 306.365 2.13342 308.996C1.0407 311.627 0.476947 314.448 0.474365 317.297V319.646L56.447 375.59C68.7248 387.86 85.3729 394.75 102.73 394.746H122.905L108.112 326.641Z" fill="#8C7BFF"/>
<path d="M49.2209 368.841C49.0929 368.841 48.9702 368.789 48.8799 368.699L19.2848 339.121C19.2356 339.078 19.1959 339.024 19.168 338.965C19.1402 338.905 19.1248 338.84 19.1229 338.774C19.121 338.709 19.1325 338.643 19.1568 338.582C19.1811 338.521 19.2176 338.465 19.2642 338.419C19.3107 338.372 19.3663 338.336 19.4275 338.311C19.4886 338.287 19.5541 338.275 19.6199 338.277C19.6857 338.279 19.7505 338.295 19.8101 338.322C19.8697 338.35 19.9231 338.39 19.9668 338.439L49.5618 368.017C49.6292 368.084 49.675 368.17 49.6935 368.264C49.7121 368.357 49.7025 368.454 49.666 368.543C49.6296 368.631 49.5678 368.706 49.4886 368.759C49.4094 368.812 49.3162 368.841 49.2209 368.841Z" fill="black"/>
<path d="M142.73 260.342L116.59 255.164L108.538 295.623H59.5311V321.063H111.333C116.764 321.066 122.029 319.187 126.23 315.746C130.432 312.305 133.311 307.514 134.378 302.189L142.73 260.342Z" fill="#8C7BFF"/>
<path d="M94.5228 321.539C94.4006 321.531 94.286 321.476 94.2024 321.387C94.1187 321.298 94.0722 321.18 94.0722 321.057C94.0722 320.935 94.1187 320.817 94.2024 320.727C94.286 320.638 94.4006 320.583 94.5228 320.575H111.333C116.65 320.567 121.8 318.722 125.913 315.353C130.027 311.985 132.85 307.299 133.906 302.088L142.159 260.723L116.968 255.733L109.01 295.719C108.988 295.828 108.928 295.926 108.842 295.997C108.755 296.067 108.647 296.106 108.536 296.106L58.8535 296.088C58.7254 296.088 58.6026 296.037 58.512 295.947C58.4214 295.856 58.3705 295.733 58.3705 295.605C58.3705 295.477 58.4214 295.354 58.512 295.264C58.6026 295.173 58.7254 295.122 58.8535 295.122L108.142 295.142L116.118 255.077C116.13 255.015 116.154 254.955 116.189 254.902C116.224 254.85 116.269 254.804 116.322 254.769C116.374 254.734 116.434 254.709 116.496 254.697C116.558 254.685 116.622 254.686 116.684 254.699L142.821 259.875C142.946 259.9 143.056 259.974 143.127 260.08C143.163 260.133 143.188 260.192 143.2 260.254C143.213 260.317 143.212 260.381 143.199 260.443L134.861 302.274C133.76 307.702 130.818 312.584 126.533 316.093C122.248 319.603 116.883 321.526 111.344 321.537L94.5228 321.539Z" fill="black"/>
<path d="M107.102 303.338C107.071 303.342 107.039 303.342 107.008 303.338C106.882 303.313 106.772 303.239 106.701 303.133C106.629 303.026 106.603 302.896 106.627 302.77L108.072 295.518C108.102 295.397 108.178 295.293 108.282 295.227C108.387 295.161 108.513 295.137 108.635 295.161C108.756 295.186 108.864 295.256 108.936 295.357C109.007 295.458 109.037 295.583 109.019 295.706L107.57 302.945C107.549 303.055 107.492 303.154 107.406 303.225C107.321 303.297 107.213 303.337 107.102 303.338Z" fill="black"/>
<path d="M108.112 327.124H106.684C104.575 327.129 102.485 326.718 100.535 325.915C98.5847 325.111 96.812 323.931 95.3183 322.442L85.6617 312.859C85.6168 312.815 85.5811 312.762 85.5566 312.704C85.5321 312.645 85.5194 312.583 85.519 312.52C85.5187 312.456 85.5309 312.394 85.5548 312.335C85.5787 312.277 85.6139 312.224 85.6584 312.179C85.7029 312.134 85.7558 312.098 85.8141 312.073C85.8724 312.049 85.935 312.036 85.9982 312.036C86.0614 312.036 86.1241 312.048 86.1826 312.072C86.2411 312.096 86.2944 312.131 86.3393 312.175L95.9981 321.755C97.402 323.157 99.0689 324.268 100.903 325.024C102.737 325.779 104.703 326.165 106.686 326.16H108.114C108.236 326.168 108.35 326.222 108.434 326.312C108.518 326.401 108.564 326.519 108.564 326.642C108.564 326.764 108.518 326.882 108.434 326.972C108.35 327.061 108.236 327.115 108.114 327.124H108.112Z" fill="black"/>
<path d="M77.1985 371.746L105.674 371.735V394.982L77.1985 394.989V371.746Z" fill="#FDA4FF"/>
<path d="M131.243 378.965L133.768 381.691C134.387 382.358 134.756 383.219 134.812 384.127C134.868 385.035 134.607 385.935 134.074 386.672L131.593 390.11L125.578 383.413H87.7906V375.512H123.344C124.828 375.513 126.295 375.82 127.654 376.414C129.013 377.008 130.235 377.877 131.243 378.965Z" fill="#FDA4FF"/>
<path d="M130.078 374.041L131.508 375.584C132.127 376.251 132.496 377.112 132.552 378.02C132.608 378.928 132.347 379.828 131.814 380.565L129.333 384.006L123.318 377.306H87.7906V371.816H93.819C96.3151 371.816 100.763 369.411 106.394 369.411H119.467C121.459 369.411 123.429 369.822 125.255 370.619C127.081 371.415 128.723 372.58 130.078 374.041Z" fill="#FDA4FF"/>
<path d="M132.126 384.27L135.158 387.549C135.778 388.216 136.147 389.077 136.203 389.986C136.259 390.894 135.997 391.794 135.464 392.532L132.983 395.97L126.968 389.271H103.554V381.37H125.473C126.722 381.369 127.957 381.627 129.102 382.126C130.247 382.625 131.277 383.355 132.126 384.27Z" fill="#FDA4FF"/>
<path d="M131.018 390.019L134.181 393.428C134.828 394.14 135.165 395.079 135.12 396.039C135.074 396.999 134.649 397.902 133.937 398.549C133.226 399.195 132.287 399.533 131.327 399.487C130.367 399.441 129.464 399.016 128.817 398.305L127.099 396.394C126.693 395.942 126.197 395.581 125.642 395.334C125.088 395.086 124.487 394.958 123.88 394.958H104.221C99.0801 394.958 95.4627 394.666 90.5098 387.059H124.247C125.518 387.059 126.776 387.322 127.942 387.832C129.107 388.341 130.154 389.085 131.018 390.019Z" fill="#FDA4FF"/>
<path d="M86.0311 371.744L77.1985 371.746V394.989L89.1895 394.985L86.0311 371.744Z" fill="#020202"/>
<path d="M134.177 386.965C134.092 386.965 134.009 386.942 133.936 386.899C133.862 386.857 133.802 386.796 133.76 386.722C133.718 386.648 133.696 386.565 133.696 386.481C133.696 386.396 133.719 386.313 133.761 386.239C134.461 385.033 134.319 383.507 133.359 381.942C132.889 381.173 131.591 379.866 130.939 379.339C128.797 377.606 126.393 376.001 123.344 376.001H116.389C116.323 376.006 116.257 375.997 116.194 375.974C116.132 375.952 116.075 375.917 116.027 375.872C115.978 375.827 115.94 375.772 115.913 375.712C115.887 375.651 115.873 375.586 115.873 375.519C115.873 375.453 115.887 375.388 115.913 375.327C115.94 375.266 115.978 375.212 116.027 375.167C116.075 375.121 116.132 375.087 116.194 375.064C116.257 375.042 116.323 375.033 116.389 375.037H123.344C126.693 375.037 129.265 376.745 131.547 378.589C132.181 379.103 133.604 380.493 134.17 381.431C135.322 383.313 135.468 385.19 134.583 386.718C134.542 386.791 134.483 386.852 134.412 386.895C134.341 386.938 134.26 386.962 134.177 386.965Z" fill="black"/>
<path d="M134.498 394.344C134.409 394.344 134.322 394.319 134.246 394.273C134.171 394.227 134.109 394.16 134.069 394.081C134.028 394.002 134.011 393.913 134.017 393.825C134.024 393.736 134.055 393.651 134.107 393.579L135.075 392.239C135.54 391.591 135.767 390.802 135.718 390.006C135.669 389.209 135.347 388.454 134.806 387.868L131.772 384.589C130.966 383.725 129.991 383.036 128.907 382.565C127.824 382.094 126.655 381.85 125.473 381.85H116.326C116.26 381.855 116.193 381.846 116.131 381.824C116.069 381.801 116.012 381.767 115.963 381.721C115.915 381.676 115.876 381.622 115.85 381.561C115.824 381.5 115.81 381.435 115.81 381.369C115.81 381.302 115.824 381.237 115.85 381.176C115.876 381.115 115.915 381.061 115.963 381.016C116.012 380.97 116.069 380.936 116.131 380.913C116.193 380.891 116.26 380.882 116.326 380.887H125.473C126.788 380.889 128.089 381.162 129.295 381.688C130.5 382.214 131.585 382.983 132.48 383.947L135.512 387.225C136.205 387.975 136.617 388.942 136.68 389.961C136.742 390.98 136.451 391.989 135.855 392.819L134.889 394.156C134.843 394.216 134.784 394.264 134.716 394.297C134.648 394.33 134.573 394.346 134.498 394.344Z" fill="black"/>
<path d="M131.514 399.992C130.937 399.993 130.366 399.872 129.839 399.637C129.311 399.402 128.84 399.058 128.454 398.628L126.739 396.716C126.378 396.315 125.936 395.994 125.444 395.774C124.951 395.555 124.417 395.441 123.877 395.441H102.136C100.196 395.441 98.2848 394.967 96.5703 394.058C94.8558 393.15 93.3897 391.836 92.2999 390.231C92.2365 390.125 92.216 389.999 92.2425 389.878C92.2691 389.758 92.3408 389.652 92.4428 389.583C92.5448 389.513 92.6695 389.486 92.7912 389.505C92.913 389.525 93.0226 389.591 93.0977 389.689C94.0989 391.164 95.4464 392.372 97.0224 393.206C98.5983 394.041 100.355 394.477 102.138 394.475H123.882C124.557 394.475 125.224 394.617 125.841 394.892C126.457 395.167 127.009 395.569 127.46 396.071L129.178 397.983C129.453 398.297 129.788 398.553 130.163 398.736C130.539 398.919 130.946 399.026 131.363 399.049C131.78 399.073 132.197 399.013 132.591 398.874C132.984 398.735 133.346 398.518 133.655 398.237C133.964 397.957 134.214 397.617 134.39 397.239C134.567 396.86 134.666 396.45 134.682 396.033C134.698 395.616 134.631 395.2 134.485 394.809C134.338 394.418 134.115 394.06 133.829 393.756L130.666 390.346C129.846 389.464 128.853 388.761 127.749 388.279C126.645 387.797 125.454 387.548 124.249 387.547H116.634C116.568 387.551 116.502 387.542 116.439 387.52C116.377 387.497 116.32 387.463 116.271 387.417C116.223 387.372 116.185 387.318 116.158 387.257C116.132 387.196 116.118 387.131 116.118 387.065C116.118 386.998 116.132 386.933 116.158 386.872C116.185 386.812 116.223 386.757 116.271 386.712C116.32 386.667 116.377 386.632 116.439 386.61C116.502 386.587 116.568 386.578 116.634 386.583H124.247C125.584 386.584 126.907 386.861 128.133 387.395C129.359 387.93 130.461 388.711 131.372 389.691L134.535 393.1C135.065 393.673 135.421 394.384 135.561 395.152C135.701 395.919 135.62 396.71 135.326 397.433C135.032 398.156 134.539 398.779 133.903 399.232C133.268 399.684 132.516 399.945 131.737 399.986L131.514 399.992Z" fill="black"/>
<path d="M109.642 395.474H77.1963C77.0686 395.474 76.9463 395.423 76.8562 395.332C76.766 395.241 76.7155 395.119 76.7155 394.991V371.748C76.7155 371.62 76.766 371.498 76.8562 371.407C76.9463 371.317 77.0686 371.265 77.1963 371.265H92.6911C94.9009 371.265 96.6648 370.78 98.5314 370.266C100.805 369.641 103.382 368.931 107.274 368.931H119.475C121.534 368.933 123.569 369.359 125.456 370.182C127.343 371.005 129.039 372.208 130.441 373.715L131.871 375.245C132.476 375.866 132.878 376.657 133.021 377.513C133.165 378.368 133.044 379.247 132.675 380.032C132.62 380.147 132.521 380.235 132.401 380.277C132.282 380.32 132.15 380.313 132.034 380.259C131.919 380.205 131.83 380.108 131.786 379.988C131.743 379.869 131.748 379.737 131.801 379.621C132.084 379.01 132.174 378.327 132.06 377.663C131.946 376.999 131.632 376.386 131.16 375.905L129.731 374.362C128.419 372.953 126.832 371.829 125.067 371.06C123.302 370.29 121.398 369.892 119.473 369.89H107.266C103.513 369.89 101.111 370.546 98.7871 371.188C96.8549 371.722 95.0298 372.222 92.6911 372.222H77.6794V394.504H109.642C109.764 394.512 109.878 394.566 109.962 394.656C110.046 394.745 110.092 394.863 110.092 394.986C110.092 395.108 110.046 395.226 109.962 395.316C109.878 395.405 109.764 395.459 109.642 395.468V395.474Z" fill="black"/>
<path d="M60.4447 295.54H31.0376C34.5501 300.182 39.8352 303.139 45.7455 303.139C51.6558 303.139 56.93 300.182 60.4447 295.54Z" fill="#FDA4FF"/>
<path d="M61.1376 296.103L51.1006 296.02C50.9784 296.012 50.8639 295.958 50.7802 295.868C50.6966 295.779 50.65 295.661 50.65 295.538C50.65 295.416 50.6966 295.298 50.7802 295.209C50.8639 295.119 50.9784 295.065 51.1006 295.057L61.1376 295.14C61.2598 295.148 61.3743 295.202 61.458 295.292C61.5416 295.381 61.5881 295.499 61.5881 295.622C61.5881 295.744 61.5416 295.862 61.458 295.951C61.3743 296.041 61.2598 296.095 61.1376 296.103Z" fill="black"/>
<path d="M32.2814 368.353L31.0377 295.749L22.2094 295.623C19.3604 295.62 16.5387 296.178 13.9055 297.266C11.2723 298.354 8.87909 299.949 6.8626 301.962C4.8461 303.975 3.2458 306.365 2.15308 308.996C1.06035 311.627 0.496601 314.448 0.494019 317.297V370.458C0.494019 385.092 12.3779 396.954 27.0399 396.954H82.558V368.353H32.2814Z" fill="#8C7BFF"/>
<path d="M0.598877 372.889C1.21189 379.473 4.26205 385.59 9.15137 390.042C14.0407 394.494 20.4165 396.959 27.029 396.954H28.7164C25.9307 391.229 21.997 386.138 17.1598 381.998C12.3227 377.858 6.68551 374.757 0.598877 372.889Z" fill="#6155FF"/>
<path d="M82.5448 397.437H27.0268C12.1244 397.437 0 385.335 0 370.458V317.297C0 305.078 9.95827 295.14 22.1985 295.14H39.9577C40.0799 295.148 40.1944 295.202 40.2781 295.292C40.3617 295.381 40.4083 295.499 40.4083 295.622C40.4083 295.744 40.3617 295.862 40.2781 295.951C40.1944 296.041 40.0799 296.095 39.9577 296.104H22.1985C10.4894 296.104 0.963916 305.612 0.963916 317.305V370.467C0.963916 384.812 12.6577 396.478 27.029 396.478H82.0618V368.837H32.2813C32.1532 368.837 32.0304 368.786 31.9398 368.695C31.8492 368.604 31.7983 368.482 31.7983 368.353V351.674C31.7938 351.608 31.803 351.542 31.8252 351.479C31.8474 351.417 31.8822 351.36 31.9274 351.312C31.9726 351.263 32.0272 351.225 32.0879 351.198C32.1486 351.172 32.2141 351.158 32.2802 351.158C32.3464 351.158 32.4119 351.172 32.4726 351.198C32.5333 351.225 32.5879 351.263 32.6331 351.312C32.6783 351.36 32.7131 351.417 32.7353 351.479C32.7575 351.542 32.7667 351.608 32.7622 351.674V367.873H82.5448C82.6724 367.873 82.7947 367.923 82.8849 368.013C82.975 368.104 83.0257 368.226 83.0257 368.353V396.954C83.0257 397.082 82.9751 397.204 82.885 397.295C82.7949 397.385 82.6726 397.436 82.5448 397.437Z" fill="black"/>
<path d="M32.4453 368.837H23.1187C23.0527 368.841 22.9864 368.832 22.9241 368.81C22.8618 368.787 22.8047 368.753 22.7563 368.707C22.708 368.662 22.6694 368.608 22.6431 368.547C22.6167 368.486 22.6031 368.421 22.6031 368.355C22.6031 368.288 22.6167 368.223 22.6431 368.162C22.6694 368.102 22.708 368.047 22.7563 368.002C22.8047 367.957 22.8618 367.922 22.9241 367.9C22.9864 367.877 23.0527 367.868 23.1187 367.873H32.4453C32.5675 367.881 32.682 367.935 32.7657 368.025C32.8493 368.114 32.8958 368.232 32.8958 368.355C32.8958 368.477 32.8493 368.595 32.7657 368.684C32.682 368.774 32.5675 368.828 32.4453 368.837Z" fill="black"/>
<path d="M99.1018 169.503C98.9848 169.503 98.8716 169.461 98.7827 169.385L47.1356 124.081C47.0844 124.04 47.042 123.989 47.0109 123.932C46.9799 123.874 46.9608 123.811 46.955 123.746C46.9491 123.681 46.9565 123.615 46.9767 123.553C46.997 123.491 47.0297 123.433 47.0728 123.384C47.1159 123.335 47.1686 123.295 47.2276 123.267C47.2866 123.238 47.3507 123.222 47.416 123.22C47.4814 123.217 47.5466 123.228 47.6077 123.251C47.6689 123.274 47.7246 123.31 47.7717 123.355L99.4188 168.659C99.4928 168.723 99.5453 168.809 99.5694 168.904C99.5934 168.999 99.5878 169.099 99.5534 169.191C99.5189 169.283 99.4571 169.362 99.3764 169.418C99.2957 169.473 99.1999 169.503 99.1018 169.503Z" fill="black"/>
<path d="M103.088 175.449C105.453 174.397 106.522 171.636 105.475 169.281C104.428 166.926 101.662 165.869 99.2967 166.92C96.9318 167.972 95.8634 170.733 96.9105 173.088C97.9575 175.443 100.723 176.5 103.088 175.449Z" fill="#020202"/>
<path d="M46.8058 126.081C49.1704 125.028 50.2378 122.267 49.1899 119.912C48.1421 117.557 45.3757 116.501 43.0112 117.554C40.6466 118.606 39.5792 121.368 40.6271 123.723C41.6749 126.077 44.4412 127.133 46.8058 126.081Z" fill="#020202"/>
<path d="M97.2483 154.637H97.2308C95.2896 154.57 93.3565 154.351 91.4495 153.982C91.3874 153.97 91.3282 153.946 91.2753 153.911C91.2225 153.876 91.177 153.831 91.1415 153.779C91.106 153.727 91.0811 153.668 91.0683 153.606C91.0556 153.544 91.0551 153.48 91.067 153.418C91.0789 153.356 91.103 153.296 91.1378 153.244C91.1725 153.191 91.2174 153.145 91.2698 153.11C91.3221 153.074 91.381 153.049 91.4429 153.037C91.5049 153.024 91.5688 153.023 91.6309 153.035C93.49 153.392 95.3739 153.606 97.2658 153.674C97.3881 153.683 97.5019 153.74 97.5843 153.83C97.6668 153.921 97.7115 154.04 97.7096 154.163C97.7076 154.285 97.6591 154.403 97.5739 154.491C97.4886 154.579 97.373 154.631 97.2505 154.637H97.2483ZM102.984 154.384C102.862 154.382 102.745 154.334 102.657 154.25C102.569 154.165 102.516 154.051 102.509 153.929C102.502 153.808 102.541 153.688 102.618 153.594C102.696 153.5 102.806 153.438 102.927 153.422C104.805 153.192 106.662 152.816 108.481 152.296C108.603 152.265 108.733 152.282 108.842 152.345C108.952 152.407 109.033 152.51 109.067 152.632C109.102 152.753 109.088 152.883 109.027 152.994C108.967 153.105 108.866 153.188 108.745 153.225C106.877 153.757 104.971 154.142 103.043 154.379L102.984 154.384ZM86.0026 152.476C85.9468 152.476 85.8913 152.466 85.8387 152.447C84.0118 151.786 82.2395 150.982 80.5383 150.043C80.4261 149.981 80.3432 149.877 80.3077 149.754C80.2722 149.631 80.2872 149.498 80.3492 149.386C80.4112 149.274 80.5153 149.191 80.6384 149.156C80.7616 149.12 80.8938 149.135 81.006 149.197C82.6615 150.112 84.3872 150.894 86.1666 151.536C86.2748 151.573 86.3661 151.648 86.4243 151.746C86.4824 151.845 86.5035 151.961 86.4837 152.074C86.464 152.186 86.4047 152.288 86.3165 152.361C86.2283 152.434 86.117 152.473 86.0026 152.471V152.476ZM113.993 151.241C113.884 151.24 113.778 151.202 113.692 151.134C113.607 151.065 113.548 150.969 113.524 150.862C113.5 150.755 113.514 150.643 113.562 150.545C113.61 150.446 113.691 150.367 113.79 150.321C115.505 149.524 117.154 148.594 118.723 147.538C118.83 147.471 118.958 147.448 119.081 147.474C119.204 147.5 119.312 147.573 119.382 147.678C119.452 147.782 119.478 147.91 119.456 148.034C119.433 148.157 119.363 148.267 119.261 148.34C117.65 149.423 115.957 150.378 114.197 151.197C114.133 151.226 114.063 151.241 113.993 151.241ZM75.981 146.941C75.8731 146.942 75.7683 146.906 75.6837 146.839C74.1534 145.641 72.7188 144.325 71.3931 142.904C71.3168 142.809 71.2793 142.689 71.2883 142.567C71.2972 142.445 71.3519 142.331 71.4413 142.248C71.5307 142.165 71.6482 142.119 71.7702 142.119C71.8923 142.119 72.0098 142.165 72.0991 142.249C73.3919 143.633 74.7906 144.914 76.2826 146.08C76.3622 146.142 76.4204 146.227 76.4492 146.323C76.4779 146.419 76.4757 146.522 76.4429 146.617C76.4101 146.713 76.3483 146.795 76.2662 146.853C76.1841 146.911 76.0859 146.942 75.9854 146.941H75.981ZM123.495 144.854C123.398 144.853 123.304 144.824 123.224 144.769C123.144 144.714 123.083 144.636 123.048 144.546C123.012 144.456 123.005 144.357 123.027 144.263C123.049 144.168 123.098 144.083 123.169 144.017L123.495 144.373L123.193 143.995C124.583 142.705 125.87 141.309 127.044 139.82C127.082 139.767 127.131 139.722 127.187 139.688C127.242 139.654 127.305 139.632 127.369 139.623C127.434 139.613 127.5 139.617 127.563 139.634C127.626 139.651 127.685 139.681 127.736 139.721C127.788 139.762 127.83 139.812 127.862 139.869C127.893 139.927 127.912 139.99 127.918 140.055C127.925 140.12 127.918 140.185 127.898 140.248C127.878 140.31 127.846 140.368 127.803 140.417C126.6 141.943 125.281 143.374 123.858 144.697L123.82 144.732C123.731 144.812 123.615 144.855 123.495 144.854ZM68.1669 138.577C68.0874 138.576 68.0093 138.556 67.9395 138.517C67.8697 138.479 67.8105 138.424 67.7669 138.358C66.6783 136.75 65.7201 135.057 64.9014 133.296C64.8699 133.238 64.8506 133.174 64.8447 133.108C64.8388 133.043 64.8464 132.976 64.8671 132.914C64.8878 132.851 64.9211 132.793 64.9649 132.744C65.0088 132.695 65.0623 132.655 65.1221 132.627C65.1819 132.599 65.2469 132.584 65.3128 132.582C65.3788 132.58 65.4444 132.592 65.5056 132.617C65.5669 132.641 65.6224 132.678 65.6689 132.725C65.7153 132.772 65.7517 132.828 65.7757 132.889C66.5744 134.603 67.5078 136.251 68.5669 137.818C68.6379 137.924 68.664 138.054 68.6394 138.18C68.6148 138.305 68.5416 138.415 68.4358 138.487C68.3576 138.544 68.2637 138.575 68.1669 138.577ZM130.612 135.829C130.528 135.829 130.446 135.806 130.373 135.764C130.3 135.722 130.24 135.662 130.198 135.59C130.155 135.518 130.133 135.436 130.132 135.352C130.131 135.268 130.151 135.185 130.192 135.112C131.113 133.46 131.904 131.738 132.557 129.962C132.576 129.899 132.607 129.84 132.649 129.789C132.692 129.738 132.744 129.697 132.803 129.667C132.862 129.637 132.927 129.62 132.993 129.616C133.059 129.612 133.125 129.622 133.187 129.645C133.249 129.668 133.306 129.703 133.354 129.749C133.402 129.794 133.44 129.849 133.465 129.91C133.491 129.971 133.504 130.037 133.503 130.103C133.503 130.169 133.489 130.234 133.462 130.295C132.793 132.118 131.981 133.886 131.033 135.582C130.991 135.656 130.929 135.718 130.855 135.76C130.781 135.803 130.697 135.825 130.612 135.825V135.829ZM63.3364 128.201C63.2315 128.2 63.1297 128.165 63.0461 128.102C62.9626 128.039 62.9019 127.95 62.873 127.849C62.3441 125.98 61.9626 124.073 61.7321 122.144C61.7201 122.079 61.7215 122.012 61.7363 121.948C61.7511 121.884 61.779 121.823 61.8182 121.77C61.8573 121.717 61.907 121.672 61.9641 121.639C62.0212 121.605 62.0845 121.584 62.1501 121.577C62.2157 121.569 62.2822 121.575 62.3455 121.593C62.4088 121.612 62.4676 121.644 62.5181 121.687C62.5687 121.729 62.6099 121.782 62.6394 121.841C62.6689 121.9 62.6859 121.964 62.6894 122.03C62.9139 123.909 63.2859 125.767 63.802 127.587C63.8193 127.647 63.8244 127.711 63.8171 127.774C63.8098 127.837 63.7901 127.898 63.7593 127.953C63.7284 128.008 63.6869 128.057 63.6372 128.096C63.5876 128.135 63.5307 128.164 63.4697 128.181C63.4263 128.193 63.3814 128.198 63.3364 128.196V128.201ZM134.559 125.082C134.528 125.084 134.496 125.084 134.465 125.082C134.34 125.056 134.229 124.982 134.158 124.876C134.087 124.769 134.06 124.639 134.085 124.513C134.45 122.657 134.67 120.775 134.74 118.885C134.752 118.762 134.81 118.648 134.903 118.567C134.996 118.486 135.117 118.443 135.24 118.448C135.363 118.452 135.48 118.504 135.567 118.592C135.653 118.681 135.702 118.799 135.704 118.922C135.631 120.863 135.406 122.796 135.031 124.701C135.007 124.808 134.947 124.904 134.861 124.972C134.775 125.04 134.669 125.078 134.559 125.077V125.082ZM61.9922 116.833H61.9747C61.8469 116.828 61.7264 116.772 61.6396 116.678C61.5527 116.584 61.5066 116.46 61.5113 116.332C61.5859 114.391 61.8125 112.459 62.1889 110.553C62.2138 110.428 62.2875 110.318 62.3936 110.247C62.4998 110.176 62.6298 110.15 62.755 110.175C62.8802 110.2 62.9904 110.273 63.0613 110.38C63.1322 110.486 63.1581 110.616 63.1331 110.741C62.7683 112.597 62.5491 114.479 62.4774 116.369C62.4706 116.495 62.415 116.614 62.3224 116.699C62.2298 116.785 62.1074 116.831 61.9813 116.828L61.9922 116.833ZM134.996 113.639C134.878 113.641 134.764 113.6 134.674 113.523C134.585 113.446 134.527 113.339 134.511 113.222C134.285 111.344 133.912 109.486 133.396 107.666C133.379 107.605 133.374 107.541 133.381 107.478C133.389 107.416 133.408 107.355 133.439 107.3C133.47 107.244 133.512 107.196 133.561 107.157C133.611 107.117 133.668 107.088 133.728 107.071C133.789 107.054 133.853 107.049 133.916 107.056C133.979 107.064 134.039 107.083 134.095 107.114C134.15 107.145 134.198 107.186 134.238 107.236C134.277 107.286 134.306 107.343 134.323 107.403C134.853 109.271 135.236 111.178 135.468 113.106C135.483 113.233 135.447 113.361 135.368 113.462C135.289 113.562 135.174 113.628 135.046 113.644L134.996 113.639ZM64.202 105.596C64.1478 105.598 64.0936 105.59 64.0424 105.572C63.9226 105.527 63.8252 105.437 63.7715 105.322C63.7179 105.206 63.7123 105.073 63.7561 104.953C64.4251 103.131 65.2364 101.365 66.1823 99.6702C66.2446 99.5586 66.3487 99.4763 66.4716 99.4415C66.5946 99.4066 66.7264 99.4221 66.838 99.4844C66.9496 99.5467 67.0318 99.6508 67.0667 99.7738C67.1015 99.8967 67.0861 100.029 67.0238 100.14C66.1001 101.791 65.3079 103.512 64.6544 105.288C64.6193 105.379 64.5572 105.457 64.4763 105.512C64.3955 105.567 64.2998 105.596 64.202 105.596ZM131.855 102.625C131.764 102.626 131.674 102.6 131.596 102.55C131.519 102.501 131.457 102.431 131.418 102.348C130.619 100.634 129.685 98.9866 128.625 97.421C128.585 97.3688 128.556 97.309 128.54 97.2453C128.524 97.1815 128.521 97.1151 128.531 97.0502C128.542 96.9853 128.565 96.9232 128.601 96.8678C128.636 96.8123 128.682 96.7646 128.737 96.7277C128.791 96.6907 128.852 96.6653 128.917 96.6529C128.982 96.6404 129.048 96.6414 129.112 96.6555C129.176 96.6697 129.237 96.6968 129.29 96.7352C129.344 96.7737 129.389 96.8226 129.423 96.879C130.511 98.4872 131.471 100.179 132.292 101.939C132.346 102.055 132.352 102.188 132.308 102.308C132.264 102.429 132.174 102.527 132.059 102.582C131.995 102.611 131.925 102.626 131.855 102.625ZM69.7931 95.6047C69.6852 95.6054 69.5803 95.5692 69.4959 95.502C69.3954 95.4227 69.3305 95.3069 69.3153 95.1799C69.3001 95.0529 69.336 94.925 69.415 94.8244C70.6151 93.3061 71.9304 91.8826 73.3493 90.5665C73.4435 90.479 73.5681 90.4316 73.6967 90.4344C73.8253 90.4373 73.9477 90.4902 74.0378 90.5818C74.0822 90.6257 74.1174 90.678 74.1414 90.7356C74.1654 90.7932 74.1778 90.8549 74.1778 90.9173C74.1778 90.9797 74.1654 91.0415 74.1414 91.0991C74.1174 91.1567 74.0822 91.209 74.0378 91.2529L73.981 91.3031C72.6132 92.5772 71.3447 93.9539 70.1866 95.4211C70.1396 95.48 70.0797 95.5273 70.0114 95.5591C69.9431 95.591 69.8684 95.6066 69.7931 95.6047ZM125.44 93.1457C125.374 93.1456 125.309 93.132 125.248 93.1057C125.188 93.0793 125.133 93.0409 125.088 92.9927C123.797 91.6136 122.399 90.3383 120.907 89.1786C120.815 89.0971 120.758 88.9837 120.747 88.8615C120.735 88.7394 120.771 88.6175 120.847 88.5207C120.922 88.4239 121.031 88.3594 121.153 88.3403C121.274 88.3212 121.398 88.349 121.499 88.4179C123.03 89.6158 124.466 90.9312 125.792 92.3523C125.856 92.421 125.899 92.507 125.915 92.5997C125.931 92.6924 125.92 92.7878 125.883 92.8742C125.845 92.9606 125.783 93.0341 125.705 93.0859C125.626 93.1376 125.534 93.1652 125.44 93.1654V93.1457ZM78.1908 87.819C78.0899 87.8161 77.9925 87.7816 77.9123 87.7205C77.832 87.6593 77.7729 87.5746 77.7432 87.4782C77.7136 87.3817 77.7149 87.2784 77.7469 87.1828C77.779 87.0871 77.8402 87.0039 77.9219 86.9447C79.5326 85.86 81.2259 84.9033 82.9863 84.0836C83.1007 84.0389 83.2279 84.0394 83.342 84.0852C83.456 84.1309 83.5483 84.2184 83.6001 84.3298C83.6519 84.4413 83.6593 84.5682 83.6208 84.6849C83.5823 84.8016 83.5008 84.8992 83.3929 84.9579C81.6816 85.7544 80.0351 86.6832 78.4684 87.736C78.3864 87.7912 78.2896 87.8201 78.1908 87.819ZM116.411 86.1054C116.329 86.1061 116.249 86.0858 116.177 86.0464C114.521 85.1334 112.794 84.3536 111.014 83.7142C110.951 83.6954 110.893 83.664 110.842 83.6218C110.792 83.5796 110.75 83.5275 110.721 83.4688C110.691 83.4101 110.674 83.346 110.67 83.2803C110.666 83.2147 110.675 83.1489 110.698 83.0871C110.72 83.0252 110.755 82.9686 110.8 82.9206C110.845 82.8727 110.899 82.8345 110.96 82.8082C111.02 82.782 111.085 82.7684 111.151 82.7682C111.216 82.768 111.282 82.7813 111.342 82.8071C113.17 83.4669 114.942 84.2709 116.642 85.2114C116.736 85.2627 116.81 85.3438 116.853 85.4419C116.895 85.5399 116.904 85.6493 116.877 85.7528C116.851 85.8564 116.791 85.9481 116.706 86.0135C116.622 86.0789 116.518 86.1144 116.411 86.1142V86.1054ZM88.5687 82.9885C88.4528 82.9878 88.341 82.9454 88.2538 82.8691C88.1665 82.7928 88.1096 82.6877 88.0935 82.5729C88.0773 82.4581 88.1029 82.3413 88.1657 82.2439C88.2285 82.1465 88.3242 82.0748 88.4354 82.0421C90.3026 81.5087 92.2085 81.1213 94.1358 80.8837C94.259 80.8754 94.3807 80.9146 94.4759 80.9932C94.571 81.0719 94.6325 81.184 94.6476 81.3065C94.6627 81.4291 94.6303 81.5527 94.5571 81.6521C94.4839 81.7515 94.3753 81.8191 94.2538 81.841C92.3762 82.0729 90.5193 82.45 88.6999 82.9689C88.6573 82.9818 88.6131 82.9884 88.5687 82.9885ZM105.639 82.2235C105.609 82.2267 105.578 82.2267 105.548 82.2235C103.689 81.8688 101.806 81.659 99.9149 81.5962C99.8492 81.5978 99.7838 81.5859 99.7227 81.5613C99.6617 81.5367 99.6063 81.4999 99.56 81.4532C99.5138 81.4064 99.4775 81.3507 99.4535 81.2894C99.4295 81.2282 99.4183 81.1626 99.4205 81.0969C99.4228 81.0311 99.4384 80.9665 99.4665 80.907C99.4946 80.8475 99.5346 80.7944 99.5839 80.7509C99.6333 80.7074 99.691 80.6744 99.7536 80.654C99.8161 80.6336 99.8822 80.6262 99.9477 80.6323C101.889 80.6978 103.821 80.9134 105.729 81.2771C105.849 81.2969 105.957 81.3615 106.032 81.4579C106.106 81.5543 106.141 81.6753 106.129 81.7964C106.118 81.9176 106.061 82.03 105.97 82.1109C105.879 82.1917 105.761 82.2351 105.639 82.2323V82.2235Z" fill="black"/>
<path d="M82.1951 145.508L72.8794 137.335L65.2817 145.94L74.5974 154.113L82.1951 145.508Z" fill="white"/>
<path d="M74.5975 154.596C74.4809 154.595 74.3685 154.552 74.2806 154.476L64.9627 146.303C64.9152 146.261 64.8765 146.21 64.8487 146.153C64.8209 146.096 64.8046 146.034 64.8007 145.971C64.7968 145.907 64.8055 145.844 64.8262 145.784C64.8468 145.724 64.8791 145.669 64.9212 145.621L72.5167 137.016C72.6012 136.92 72.7202 136.862 72.8475 136.854C72.9749 136.846 73.1003 136.888 73.1964 136.972L82.5143 145.145C82.5623 145.186 82.6014 145.237 82.6292 145.294C82.657 145.351 82.6729 145.414 82.676 145.477C82.6841 145.604 82.6417 145.73 82.558 145.827L74.9713 154.432C74.9244 154.485 74.8668 154.526 74.8023 154.555C74.7378 154.583 74.6679 154.597 74.5975 154.596ZM65.9638 145.897L74.5538 153.44L81.5132 145.556L72.9232 138.021L65.9638 145.897Z" fill="#020202"/>
<path d="M25.5733 196.949C30.43 202.022 52.4821 191.502 52.4821 191.502C52.4821 191.502 60.5344 169.863 61.3759 163.114C61.4764 162.312 61.5507 161.638 61.6054 161.129L42.8757 180.239L45.0615 182.475L39.7654 187.88L34.5196 182.532L39.8178 177.127L42.0036 179.363L60.3398 160.165C59.8743 160.211 59.7584 160.224 58.9606 160.312C52.4034 161.059 35.9403 163.418 30.6901 168.773C24.2269 175.371 20.7035 191.872 25.5733 196.949Z" fill="#020202"/>
<path d="M60.613 163.883L63.2753 161.168C63.388 161.051 63.451 160.894 63.451 160.731C63.451 160.568 63.388 160.412 63.2753 160.294C63.2192 160.236 63.1522 160.19 63.078 160.159C63.0038 160.128 62.9241 160.111 62.8436 160.111C62.7631 160.111 62.6834 160.128 62.6092 160.159C62.535 160.19 62.468 160.236 62.4119 160.294L59.7497 163.009C59.6369 163.126 59.574 163.283 59.574 163.446C59.574 163.609 59.6369 163.766 59.7497 163.883C59.8055 163.941 59.8726 163.987 59.9468 164.019C60.0209 164.051 60.1007 164.067 60.1814 164.067C60.262 164.067 60.3418 164.051 60.4159 164.019C60.4901 163.987 60.5572 163.941 60.613 163.883Z" fill="#020202"/>
<path d="M34.2551 199.161L0.301636 235.528V210.223L22.522 188.895L23.3176 188.134L23.3766 188.075L27.7437 192.525L29.4661 194.28L31.2934 196.143L33.1797 198.062L34.2551 199.161Z" fill="#020202"/>
<path d="M23.805 192.783C28.6617 197.854 51.1006 188.506 51.1006 188.506C51.1006 188.506 59.3802 167.304 60.2808 160.653C60.3857 159.864 60.4687 159.201 60.5277 158.699L41.5117 177.264L43.6975 179.5L38.3183 184.746L33.0725 179.398L38.4517 174.152L40.6549 176.39L59.8174 157.689C59.3474 157.726 58.6939 157.781 57.8895 157.857C51.2798 158.497 29.3349 165.787 29.3349 165.787C29.3349 165.787 18.946 187.706 23.805 192.783Z" fill="#8C7BFF"/>
<path d="M59.5157 161.396L62.2173 158.76C62.2811 158.705 62.3329 158.638 62.3696 158.562C62.4063 158.486 62.427 158.404 62.4306 158.32C62.4341 158.236 62.4204 158.152 62.3902 158.073C62.36 157.995 62.314 157.924 62.255 157.864C62.1961 157.804 62.1255 157.756 62.0475 157.725C61.9696 157.693 61.886 157.678 61.8019 157.68C61.7179 157.682 61.6351 157.701 61.5588 157.737C61.4825 157.772 61.4142 157.823 61.3583 157.885L58.6567 160.521C58.5976 160.578 58.5503 160.645 58.5176 160.72C58.485 160.794 58.4676 160.875 58.4666 160.956C58.4656 161.038 58.4809 161.119 58.5117 161.194C58.5425 161.27 58.5881 161.338 58.6458 161.396C58.7613 161.511 58.9177 161.575 59.0808 161.575C59.2438 161.575 59.4002 161.511 59.5157 161.396Z" fill="#8C7BFF"/>
<path d="M57.7978 159.645L60.5016 157.007C60.559 156.95 60.6048 156.883 60.6362 156.809C60.6677 156.735 60.6842 156.655 60.6849 156.575C60.6856 156.495 60.6705 156.415 60.6403 156.34C60.6102 156.265 60.5657 156.198 60.5093 156.14C60.4528 156.083 60.3857 156.037 60.3116 156.006C60.2375 155.974 60.158 155.958 60.0775 155.957C59.997 155.956 59.9172 155.971 59.8426 156.001C59.768 156.032 59.7 156.076 59.6426 156.132L56.9388 158.771C56.8229 158.885 56.757 159.04 56.7555 159.202C56.7541 159.365 56.8173 159.521 56.9312 159.637C57.0451 159.753 57.2004 159.819 57.3629 159.821C57.5255 159.822 57.6819 159.759 57.7978 159.645Z" fill="#8C7BFF"/>
<path d="M32.1567 195.244L31.2934 196.143L29.2191 198.302L0.301636 228.402V204.435L21.8029 184.7L22.7143 185.625L23.4422 186.372L28.6311 191.657L31.1054 194.175L32.1567 195.244Z" fill="#FCB503"/>
<path d="M28.6311 191.657L27.7437 192.525L26.2203 194.02L24.605 195.603L0.301636 219.408V204.435L21.8029 184.7L22.7143 185.625L23.4422 186.372L28.6311 191.657Z" fill="#FED101"/>
<path d="M348.426 234.645C348.298 234.645 348.176 234.594 348.086 234.504C347.996 234.414 347.945 234.291 347.945 234.164L347.923 227.259C345.505 226.658 343.188 225.705 341.047 224.431L336.197 229.335C336.107 229.427 335.984 229.479 335.856 229.48C335.792 229.481 335.729 229.469 335.67 229.445C335.612 229.42 335.559 229.384 335.515 229.338L327.257 221.113C327.167 221.022 327.117 220.899 327.117 220.772C327.117 220.644 327.167 220.521 327.257 220.431L332.107 215.526C330.82 213.383 329.853 211.063 329.237 208.641L322.363 208.671C322.235 208.671 322.113 208.621 322.022 208.531C321.932 208.441 321.881 208.318 321.88 208.19L321.843 196.505C321.843 196.378 321.893 196.255 321.983 196.164C322.074 196.073 322.196 196.021 322.324 196.02L329.2 195.99C329.797 193.562 330.746 191.234 332.015 189.08L327.135 184.217C327.044 184.127 326.994 184.004 326.994 183.876C326.994 183.748 327.044 183.626 327.135 183.535L335.34 175.229C335.384 175.184 335.437 175.148 335.496 175.123C335.554 175.098 335.617 175.085 335.681 175.085C335.808 175.085 335.93 175.135 336.02 175.225L340.907 180.106C343.04 178.812 345.352 177.84 347.768 177.218L347.746 170.311C347.747 170.184 347.798 170.062 347.888 169.971C347.978 169.881 348.1 169.83 348.227 169.828L359.866 169.776C359.993 169.776 360.115 169.826 360.205 169.916C360.295 170.006 360.347 170.129 360.349 170.257L360.369 177.162C362.788 177.762 365.106 178.715 367.247 179.99L372.098 175.079C372.142 175.033 372.195 174.998 372.254 174.973C372.312 174.949 372.375 174.936 372.439 174.936C372.566 174.937 372.689 174.987 372.78 175.076L381.035 183.301C381.125 183.392 381.176 183.514 381.176 183.642C381.176 183.77 381.125 183.893 381.035 183.983L376.185 188.888C377.471 191.031 378.438 193.351 379.055 195.773L385.931 195.743C385.995 195.742 386.058 195.754 386.116 195.778C386.175 195.802 386.228 195.837 386.272 195.883C386.317 195.927 386.353 195.98 386.377 196.039C386.402 196.097 386.414 196.16 386.414 196.223L386.451 207.909C386.451 208.036 386.401 208.159 386.311 208.25C386.221 208.341 386.099 208.393 385.971 208.394L379.094 208.424C378.494 210.853 377.541 213.18 376.268 215.333L381.149 220.197C381.239 220.288 381.289 220.41 381.289 220.538C381.289 220.665 381.239 220.788 381.149 220.879L372.944 229.185C372.899 229.23 372.846 229.266 372.787 229.291C372.729 229.316 372.666 229.329 372.603 229.329C372.539 229.329 372.477 229.317 372.418 229.293C372.36 229.269 372.306 229.234 372.262 229.189L367.383 224.328C365.249 225.621 362.938 226.594 360.522 227.217L360.544 234.122C360.544 234.25 360.493 234.372 360.404 234.462C360.314 234.553 360.192 234.604 360.065 234.605L348.424 234.658L348.426 234.645ZM340.977 223.34C341.066 223.34 341.153 223.365 341.228 223.412C343.481 224.797 345.944 225.809 348.52 226.409C348.626 226.433 348.72 226.493 348.788 226.578C348.856 226.663 348.893 226.768 348.894 226.876L348.913 233.676L359.589 233.63L359.569 226.828C359.568 226.72 359.604 226.615 359.67 226.529C359.737 226.444 359.831 226.384 359.936 226.358C362.51 225.736 364.966 224.703 367.21 223.298C367.302 223.24 367.411 223.215 367.519 223.227C367.627 223.239 367.728 223.287 367.805 223.364L372.613 228.153L380.141 220.54L375.333 215.749C375.256 215.672 375.207 215.572 375.194 215.465C375.181 215.358 375.204 215.249 375.26 215.156C376.647 212.892 377.658 210.419 378.257 207.832C378.282 207.726 378.341 207.632 378.426 207.564C378.511 207.496 378.616 207.459 378.725 207.458L385.501 207.428L385.468 196.717L378.692 196.746C378.584 196.746 378.479 196.709 378.394 196.642C378.309 196.575 378.249 196.482 378.224 196.376C377.606 193.792 376.575 191.324 375.171 189.067C375.114 188.975 375.09 188.867 375.102 188.759C375.114 188.652 375.162 188.552 375.239 188.475L380.017 183.642L372.452 176.097L367.676 180.928C367.6 181.005 367.499 181.054 367.391 181.067C367.283 181.08 367.174 181.055 367.081 180.998C364.824 179.61 362.356 178.598 359.774 178.001C359.669 177.976 359.575 177.917 359.507 177.832C359.44 177.747 359.403 177.642 359.403 177.533L359.381 170.733L348.706 170.779L348.728 177.581C348.728 177.69 348.691 177.795 348.624 177.88C348.557 177.965 348.464 178.026 348.358 178.051C345.785 178.673 343.33 179.706 341.086 181.111C340.994 181.169 340.884 181.194 340.776 181.182C340.668 181.17 340.567 181.121 340.49 181.043L335.681 176.257L328.153 183.872L332.962 188.661C333.038 188.737 333.086 188.837 333.099 188.945C333.112 189.052 333.088 189.161 333.032 189.253C331.652 191.52 330.644 193.994 330.048 196.58C330.024 196.686 329.965 196.78 329.88 196.848C329.795 196.916 329.689 196.953 329.58 196.954L322.805 196.984L322.84 207.694L329.615 207.666C329.724 207.665 329.829 207.702 329.914 207.769C329.999 207.836 330.058 207.93 330.083 208.035C330.699 210.616 331.726 213.08 333.126 215.333C333.183 215.425 333.207 215.534 333.195 215.641C333.182 215.749 333.134 215.849 333.058 215.926L328.278 220.761L335.851 228.306L340.627 223.475C340.674 223.431 340.728 223.396 340.788 223.372C340.849 223.349 340.913 223.338 340.977 223.34ZM354.133 217.421C350.118 217.414 346.27 215.815 343.432 212.975C340.594 210.136 338.999 206.286 338.994 202.271C338.968 193.88 345.748 187.024 354.107 186.989H354.175C358.19 186.994 362.038 188.593 364.877 191.433C367.715 194.273 369.31 198.123 369.313 202.138C369.341 210.529 362.561 217.386 354.203 217.421H354.133ZM354.199 216.457C357.015 216.433 359.761 215.577 362.092 213.996C364.422 212.415 366.234 210.18 367.297 207.572C368.36 204.964 368.628 202.1 368.068 199.34C367.507 196.58 366.143 194.048 364.146 192.062C362.836 190.755 361.282 189.719 359.572 189.014C357.861 188.309 356.029 187.948 354.179 187.953H354.115C351.299 187.976 348.553 188.832 346.222 190.413C343.891 191.995 342.08 194.23 341.017 196.838C339.954 199.446 339.687 202.31 340.248 205.07C340.81 207.83 342.175 210.362 344.173 212.348C345.481 213.655 347.035 214.69 348.745 215.395C350.455 216.101 352.288 216.461 354.137 216.457H354.199Z" fill="#4ADA85"/>
<path d="M79.911 47.6297L79.8651 33.0879L70.8358 33.1294C70.0561 29.8558 68.7534 26.7293 66.9779 23.8706L73.345 17.4314L63.072 7.1933L56.7027 13.6325C53.8436 11.8762 50.7191 10.5941 47.4504 9.83588L47.4308 0.765015L32.9458 0.828401L32.9742 9.8927C29.7064 10.679 26.5872 11.9884 23.7372 13.7702L17.3308 7.39658L7.11899 17.7242L13.5254 24.1066C11.7686 26.9809 10.4853 30.1189 9.7244 33.4004L0.695068 33.442L0.740969 47.9838L9.7703 47.9444C10.5514 51.2169 11.854 54.3425 13.6281 57.2011L7.26106 63.6403L17.5341 73.8762L23.9012 67.4369C26.7598 69.1962 29.8843 70.4813 33.1535 71.2423L33.1819 80.3044L47.6668 80.2411L47.6493 71.1768C50.9148 70.3872 54.0311 69.0749 56.8776 67.2905L63.284 73.6751L73.4958 63.3452L67.0894 56.9628C68.8458 54.0891 70.1292 50.952 70.8904 47.6712L79.911 47.6297ZM40.3489 58.8732C37.9464 58.8798 35.5661 58.4125 33.3443 57.4981C31.1225 56.5838 29.1029 55.2402 27.401 53.5444C25.6991 51.8485 24.3483 49.8337 23.4259 47.6153C22.5036 45.3968 22.0278 43.0182 22.0258 40.6156C21.9952 30.489 30.148 22.2422 40.2353 22.1985C42.6394 22.189 45.0217 22.6541 47.2458 23.567C49.4698 24.48 51.4918 25.823 53.1958 27.5189C54.8999 29.2148 56.2525 31.2303 57.1761 33.45C58.0996 35.6696 58.5761 38.0497 58.5781 40.4539C58.6021 50.5804 50.4493 58.8273 40.3599 58.8732H40.3489Z" fill="#FED101"/>
<path d="M184.217 370.909L184.195 363.591L179.651 363.613C179.259 361.965 178.604 360.391 177.71 358.953L180.915 355.713L175.734 350.561L172.53 353.801C171.091 352.916 169.519 352.269 167.874 351.886L167.861 347.327L160.572 347.357L160.585 351.919C158.941 352.32 157.374 352.984 155.942 353.886L152.718 350.673L147.58 355.871L150.804 359.084C149.92 360.53 149.274 362.108 148.891 363.759L144.347 363.779L144.371 371.097L148.913 371.077C149.307 372.724 149.963 374.296 150.856 375.735L147.652 378.976L152.823 384.128L156.025 380.887C157.464 381.772 159.036 382.418 160.681 382.801L160.696 387.363L167.986 387.33L167.97 382.768C169.614 382.372 171.183 381.712 172.615 380.814L175.839 384.025L180.98 378.817L177.756 375.606C178.64 374.157 179.286 372.575 179.669 370.922L184.217 370.909ZM164.327 376.565C162.501 376.578 160.712 376.049 159.186 375.045C157.661 374.04 156.468 372.606 155.758 370.923C155.049 369.241 154.854 367.385 155.2 365.592C155.545 363.798 156.415 362.148 157.699 360.849C158.983 359.551 160.623 358.662 162.413 358.296C164.202 357.93 166.06 358.104 167.75 358.794C169.441 359.484 170.889 360.661 171.911 362.175C172.932 363.689 173.482 365.472 173.49 367.298C173.5 368.51 173.27 369.712 172.814 370.834C172.357 371.957 171.683 372.979 170.831 373.84C169.978 374.701 168.964 375.386 167.846 375.853C166.727 376.321 165.528 376.563 164.316 376.565H164.327Z" fill="black"/>
</g>
<defs>
<clipPath id="clip0_98_5534">
<rect width="399.99" height="399.992" fill="white"/>
</clipPath>
</defs>
</svg>
