<svg width="16" height="224" viewBox="0 0 16 224" fill="none" xmlns="http://www.w3.org/2000/svg">
<path d="M0.562389 0.569631L0.563814 0.568231C0.607441 0.525359 0.666164 0.501334 0.727336 0.501334C0.78849 0.501334 0.847197 0.525344 0.890822 0.568195C0.890835 0.568207 0.890847 0.568219 0.890859 0.568232L7.13604 6.71335C7.13624 6.71356 7.13645 6.71376 7.13665 6.71396C7.36649 6.94102 7.67656 7.06836 7.99966 7.06836C8.32282 7.06836 8.63296 6.94097 8.86281 6.71382C8.86297 6.71367 8.86312 6.71351 8.86328 6.71335L15.1085 0.566899C15.1085 0.566866 15.1085 0.566834 15.1086 0.566801C15.1522 0.52399 15.2109 0.500001 15.272 0.500001C15.3332 0.500001 15.3919 0.524026 15.4355 0.566899L15.4374 0.568763C15.4572 0.588019 15.473 0.611052 15.4837 0.636498L15.9443 0.441912L15.4837 0.636499C15.4945 0.661944 15.5 0.689286 15.5 0.716908C15.5 0.744531 15.4945 0.771873 15.4837 0.797318L15.9443 0.991906L15.4837 0.797319C15.473 0.822762 15.4572 0.845794 15.4374 0.865053L15.4374 0.865046L15.4352 0.867185L9.19062 7.01307C9.19054 7.01315 9.19045 7.01323 9.19037 7.01331C8.87255 7.32524 8.445 7.5 7.99966 7.5C7.55429 7.5 7.12671 7.32521 6.80888 7.01324C6.80882 7.01318 6.80876 7.01312 6.8087 7.01307L0.564089 0.86718L0.562388 0.865521C0.542644 0.846273 0.526951 0.823266 0.516236 0.797856C0.50552 0.772445 0.500001 0.745149 0.500001 0.717574C0.500001 0.689999 0.505521 0.662701 0.516234 0.637295C0.526951 0.61188 0.542644 0.588874 0.562389 0.569631Z" fill="#4725CE" stroke="#4725CE"/>
<path d="M15.9443 108.387C15.9075 108.311 15.8537 108.242 15.786 108.184C15.6488 108.066 15.4642 108 15.272 108C15.0797 108 14.8951 108.066 14.758 108.184L15.9443 108.387ZM15.9443 108.387L15.494 108.604C15.4891 108.594 15.4795 108.58 15.462 108.565L15.46 108.563C15.4196 108.528 15.3528 108.5 15.272 108.5C15.1913 108.5 15.1246 108.528 15.0842 108.563C15.0841 108.563 15.0841 108.563 15.084 108.563L8.83888 113.941M15.9443 108.387L15.494 108.604C15.4988 108.614 15.5 108.622 15.5 108.627C15.5 108.633 15.4988 108.641 15.494 108.651C15.4891 108.661 15.4795 108.675 15.462 108.69L15.462 108.69L15.4597 108.692L9.21509 114.069C9.21504 114.069 9.21499 114.069 9.21494 114.069C8.9003 114.34 8.46468 114.5 7.99966 114.5C7.53469 114.5 7.09911 114.34 6.78448 114.07C6.78439 114.069 6.78431 114.069 6.78422 114.069L0.539637 108.692L0.53785 108.69C0.520414 108.675 0.51087 108.661 0.505945 108.651C0.501162 108.641 0.500001 108.633 0.500001 108.628C0.500001 108.622 0.501162 108.615 0.505943 108.605C0.51087 108.594 0.520414 108.58 0.537852 108.566L0.539348 108.564C0.579758 108.53 0.646509 108.501 0.727336 108.501C0.807998 108.501 0.87464 108.529 0.915078 108.564L8.83888 113.941M8.83888 113.941C8.83872 113.941 8.83857 113.941 8.83842 113.942C8.60524 114.143 8.30308 114.247 7.99966 114.247C7.69636 114.247 7.39433 114.143 7.16118 113.942C7.16094 113.942 7.16069 113.941 7.16044 113.941L0.915326 108.564L8.83888 113.941Z" fill="#4725CE" stroke="#4725CE"/>
<path d="M0.562389 216.57L0.563814 216.568C0.607441 216.525 0.666164 216.501 0.727336 216.501C0.78849 216.501 0.847197 216.525 0.890822 216.568C0.890835 216.568 0.890847 216.568 0.890859 216.568L7.13604 222.713C7.13624 222.714 7.13645 222.714 7.13665 222.714C7.36649 222.941 7.67656 223.068 7.99966 223.068C8.32282 223.068 8.63296 222.941 8.86281 222.714C8.86297 222.714 8.86312 222.714 8.86328 222.713L15.1085 216.567C15.1085 216.567 15.1085 216.567 15.1086 216.567C15.1522 216.524 15.2109 216.5 15.272 216.5C15.3332 216.5 15.3919 216.524 15.4355 216.567L15.4374 216.569C15.4572 216.588 15.473 216.611 15.4837 216.636L15.9443 216.442L15.4837 216.636C15.4945 216.662 15.5 216.689 15.5 216.717C15.5 216.745 15.4945 216.772 15.4837 216.797L15.9443 216.992L15.4837 216.797C15.473 216.823 15.4572 216.846 15.4374 216.865L15.4374 216.865L15.4352 216.867L9.19062 223.013C9.19054 223.013 9.19045 223.013 9.19037 223.013C8.87255 223.325 8.445 223.5 7.99966 223.5C7.55429 223.5 7.12671 223.325 6.80888 223.013C6.80882 223.013 6.80876 223.013 6.8087 223.013L0.564089 216.867L0.562388 216.866C0.542644 216.846 0.526951 216.823 0.516236 216.798C0.50552 216.772 0.500001 216.745 0.500001 216.718C0.500001 216.69 0.505521 216.663 0.516234 216.637C0.526951 216.612 0.542644 216.589 0.562389 216.57Z" fill="#4725CE" stroke="#4725CE"/>
</svg>
