<svg width="18" height="18" viewBox="0 0 18 18" fill="none" xmlns="http://www.w3.org/2000/svg">
<path d="M17.8405 7.37807C17.9476 7.98211 18.001 8.59415 18 9.20726C18 11.9454 17.0015 14.2606 15.264 15.8277H15.2662C13.7467 17.2035 11.658 18 9.18132 18C6.74629 18 4.41098 17.0518 2.68915 15.364C0.967315 13.6763 0 11.3871 0 9.00027C0 6.61339 0.967315 4.32428 2.68915 2.6365C4.41098 0.948721 6.74629 0.000537737 9.18132 0.000537737C11.4603 -0.0243397 13.6609 0.814807 15.3236 2.34272L12.7024 4.91214C11.7546 4.02708 10.4902 3.54229 9.18132 3.56218C6.78615 3.56218 4.75134 5.14613 4.02601 7.27907C3.64211 8.39684 3.64211 9.60707 4.02601 10.7248H4.02945C4.75822 12.8544 6.78959 14.4384 9.18477 14.4384C10.422 14.4384 11.4847 14.1279 12.3087 13.5789H12.3053C12.7838 13.2683 13.1932 12.8658 13.5086 12.3957C13.824 11.9257 14.0389 11.3978 14.1404 10.8441H9.18132V7.37919L17.8405 7.37807Z" fill="white"/>
</svg>
