<svg width="16" height="8" viewBox="0 0 16 8" fill="none" xmlns="http://www.w3.org/2000/svg">
<path d="M0.562389 0.569631L0.563814 0.568231C0.607441 0.525359 0.666164 0.501334 0.727336 0.501334C0.78849 0.501334 0.847197 0.525344 0.890822 0.568195C0.890835 0.568207 0.890847 0.568219 0.890859 0.568232L7.13604 6.71335C7.13624 6.71356 7.13645 6.71376 7.13665 6.71396C7.36649 6.94102 7.67656 7.06836 7.99966 7.06836C8.32282 7.06836 8.63296 6.94097 8.86281 6.71382C8.86297 6.71367 8.86312 6.71351 8.86328 6.71335L15.1085 0.566899C15.1085 0.566866 15.1085 0.566834 15.1086 0.566801C15.1522 0.52399 15.2109 0.500001 15.272 0.500001C15.3332 0.500001 15.3919 0.524026 15.4355 0.566899L15.4374 0.568763C15.4572 0.588019 15.473 0.611052 15.4837 0.636498L15.9443 0.441912L15.4837 0.636499C15.4945 0.661944 15.5 0.689286 15.5 0.716908C15.5 0.744531 15.4945 0.771873 15.4837 0.797318L15.9443 0.991906L15.4837 0.797319C15.473 0.822762 15.4572 0.845794 15.4374 0.865053L15.4374 0.865046L15.4352 0.867185L9.19062 7.01307C9.19054 7.01315 9.19045 7.01323 9.19037 7.01331C8.87255 7.32524 8.445 7.5 7.99966 7.5C7.55429 7.5 7.12671 7.32521 6.80888 7.01324C6.80882 7.01318 6.80876 7.01312 6.8087 7.01307L0.564089 0.86718L0.562388 0.865521C0.542644 0.846273 0.526951 0.823266 0.516236 0.797856C0.50552 0.772445 0.500001 0.745149 0.500001 0.717574C0.500001 0.689999 0.505521 0.662701 0.516234 0.637295C0.526951 0.61188 0.542644 0.588874 0.562389 0.569631Z" fill="#4725CE" stroke="#4725CE"/>
</svg>
