<svg width="16" height="7" viewBox="0 0 16 7" fill="none" xmlns="http://www.w3.org/2000/svg">
<path d="M15.9443 0.386673C15.9075 0.31053 15.8537 0.241609 15.786 0.183988C15.6488 0.0660734 15.4642 1.38367e-06 15.272 1.36687e-06C15.0797 1.35006e-06 14.8951 0.0660733 14.758 0.183988L15.9443 0.386673ZM15.9443 0.386673L15.494 0.604075C15.4891 0.593826 15.4795 0.579726 15.462 0.564822L15.46 0.563109C15.4196 0.528361 15.3528 0.500001 15.272 0.500001C15.1913 0.500001 15.1246 0.528262 15.0842 0.562927C15.0841 0.562988 15.0841 0.563048 15.084 0.563109L8.83888 5.9412M15.9443 0.386673L15.494 0.604076C15.4988 0.614026 15.5 0.621686 15.5 0.627294C15.5 0.632904 15.4988 0.640566 15.494 0.650515C15.4891 0.660762 15.4795 0.674861 15.462 0.689766L15.462 0.689759L15.4597 0.691727L9.21509 6.06936C9.21504 6.0694 9.21499 6.06944 9.21494 6.06949C8.9003 6.33973 8.46468 6.5 7.99966 6.5C7.53469 6.5 7.09911 6.33976 6.78448 6.06957C6.78439 6.0695 6.78431 6.06943 6.78422 6.06935L0.539637 0.691722L0.53785 0.690197C0.520414 0.675324 0.51087 0.661264 0.505945 0.651045C0.501162 0.641121 0.500001 0.633478 0.500001 0.627877C0.500001 0.622276 0.501162 0.614631 0.505943 0.604713C0.51087 0.594489 0.520414 0.58043 0.537852 0.56556L0.539348 0.564274C0.579758 0.529527 0.646509 0.501167 0.727336 0.501167C0.807998 0.501167 0.87464 0.529411 0.915078 0.564062L8.83888 5.9412M8.83888 5.9412C8.83872 5.94134 8.83857 5.94147 8.83842 5.9416C8.60524 6.14324 8.30308 6.24731 7.99966 6.24731C7.69636 6.24731 7.39433 6.14333 7.16118 5.94185C7.16094 5.94163 7.16069 5.94142 7.16044 5.9412L0.915326 0.564275L8.83888 5.9412Z" fill="#4725CE" stroke="#4725CE"/>
</svg>
