<svg width="16" height="8" viewBox="0 0 16 8" fill="none" xmlns="http://www.w3.org/2000/svg">
<path d="M15.4376 7.43037L15.4362 7.43177C15.3926 7.47464 15.3338 7.49866 15.2727 7.49866C15.2115 7.49866 15.1528 7.47465 15.1092 7.4318C15.1092 7.43179 15.1092 7.43178 15.1091 7.43177L8.86396 1.28664C8.86376 1.28644 8.86355 1.28624 8.86335 1.28604C8.63351 1.05898 8.32344 0.931641 8.00034 0.931641C7.67718 0.931641 7.36704 1.05903 7.13719 1.28618C7.13703 1.28633 7.13688 1.28649 7.13672 1.28665L0.891544 7.4331C0.891511 7.43313 0.891478 7.43317 0.891445 7.4332C0.847826 7.47601 0.789146 7.5 0.72802 7.5C0.666848 7.5 0.608125 7.47597 0.564497 7.4331L0.562589 7.43124C0.542784 7.41198 0.52704 7.38895 0.516289 7.3635L0.0557069 7.55809L0.516289 7.3635C0.505539 7.33806 0.5 7.31071 0.5 7.28309C0.5 7.25547 0.505539 7.22813 0.516289 7.20268L0.0557069 7.00809L0.516289 7.20268C0.527039 7.17724 0.542782 7.15421 0.562589 7.13495L0.562596 7.13495L0.56477 7.13281L6.80938 0.986932C6.80946 0.986852 6.80955 0.986772 6.80963 0.986692C7.12745 0.674761 7.555 0.5 8.00034 0.5C8.44571 0.5 8.87329 0.674785 9.19112 0.986758C9.19118 0.986816 9.19124 0.986874 9.1913 0.986933L15.4359 7.13282L15.4376 7.13448C15.4574 7.15373 15.4731 7.17673 15.4838 7.20214C15.4945 7.22755 15.5 7.25485 15.5 7.28242C15.5 7.31 15.4945 7.3373 15.4838 7.3627C15.473 7.38812 15.4574 7.41112 15.4376 7.43037Z" fill="#4725CE" stroke="#4725CE"/>
</svg>
