<svg width="817" height="12" viewBox="0 0 817 12" fill="none" xmlns="http://www.w3.org/2000/svg">
<path d="M5.84265 11.069L1.23164 6.38402C1.13052 6.2818 1.07379 6.14382 1.07379 6.00002C1.07379 5.85623 1.13052 5.71824 1.23164 5.61602L5.84164 0.931023C5.94272 0.828168 5.99936 0.68973 5.99936 0.545523C5.99936 0.401316 5.94272 0.262879 5.84164 0.160023C5.79227 0.109375 5.73325 0.069123 5.66808 0.0416391C5.6029 0.0141551 5.53288 -4.05655e-06 5.46214 -4.05346e-06C5.39141 -4.05036e-06 5.32139 0.0141552 5.25621 0.0416391C5.19104 0.069123 5.13202 0.109375 5.08264 0.160023L0.472645 4.84402C0.169719 5.15255 -2.81192e-07 5.56765 -2.62292e-07 6.00002C-2.43392e-07 6.4324 0.169719 6.8475 0.472645 7.15602L5.08265 11.84C5.13204 11.8908 5.19112 11.9312 5.25638 11.9588C5.32165 11.9864 5.39179 12.0006 5.46265 12.0006C5.5335 12.0006 5.60364 11.9864 5.66891 11.9588C5.73417 11.9312 5.79325 11.8908 5.84265 11.84C5.94372 11.7372 6.00036 11.5987 6.00036 11.4545C6.00036 11.3103 5.94372 11.1719 5.84265 11.069Z" fill="#29127D"/>
<path d="M811.158 0.932113L815.769 5.61711C815.87 5.71933 815.927 5.85732 815.927 6.00111C815.927 6.1449 815.87 6.28289 815.769 6.38511L811.159 11.0701C811.058 11.173 811.001 11.3114 811.001 11.4556C811.001 11.5998 811.058 11.7383 811.159 11.8411C811.208 11.8918 811.267 11.932 811.332 11.9595C811.398 11.987 811.468 12.0011 811.538 12.0011C811.609 12.0011 811.679 11.987 811.744 11.9595C811.809 11.932 811.868 11.8918 811.918 11.8411L816.528 7.15711C816.831 6.84859 817 6.43349 817 6.00111C817 5.56874 816.831 5.15363 816.528 4.84511L811.918 0.161113C811.868 0.110311 811.809 0.0699289 811.744 0.0423541C811.679 0.0147794 811.609 0.000571969 811.538 0.000571966C811.467 0.000571963 811.397 0.0147794 811.332 0.0423541C811.266 0.0699288 811.207 0.110311 811.158 0.161113C811.057 0.263968 811 0.402406 811 0.546613C811 0.690819 811.057 0.829257 811.158 0.932113Z" fill="#29127D"/>
</svg>
