<svg width="33" height="28" viewBox="0 0 33 28" fill="none" xmlns="http://www.w3.org/2000/svg">
<rect width="33" height="28" rx="11" fill="#4725CE" fill-opacity="0.12"/>
<path d="M10 11.2258C10 10.105 10.4483 9.03018 11.2463 8.2377C12.0443 7.44521 13.1266 7 14.2552 7H19.445C19.5922 7 19.7334 7.05807 19.8374 7.16144C19.9415 7.26481 20 7.405 20 7.55119C20 7.69737 19.9415 7.83757 19.8374 7.94093C19.7334 8.0443 19.5922 8.10237 19.445 8.10237H14.2552C13.421 8.10237 12.6211 8.43144 12.0312 9.01719C11.4414 9.60294 11.11 10.3974 11.11 11.2258V16.4488C11.11 16.595 11.0516 16.7352 10.9475 16.8386C10.8434 16.9419 10.7022 17 10.555 17C10.4078 17 10.2666 16.9419 10.1626 16.8386C10.0585 16.7352 10 16.595 10 16.4488V11.2258Z" fill="#4725CE"/>
<path d="M21.5196 10.1947C19.1804 9.93511 16.8196 9.93511 14.4804 10.1947C14.1568 10.2307 13.8548 10.3749 13.6237 10.6038C13.3925 10.8327 13.2456 11.1329 13.207 11.4557C12.931 13.8106 12.931 16.1896 13.207 18.5445C13.2455 18.8673 13.3923 19.1676 13.6235 19.3965C13.8547 19.6255 14.1567 19.7696 14.4804 19.8055C16.8069 20.0648 19.193 20.0648 21.5196 19.8055C21.8433 19.7696 22.1453 19.6255 22.3765 19.3965C22.6077 19.1676 22.7545 18.8673 22.793 18.5445C23.069 16.1896 23.069 13.8106 22.793 11.4557C22.7544 11.1329 22.6075 10.8327 22.3763 10.6038C22.1452 10.3749 21.8432 10.2307 21.5196 10.1947Z" fill="#4725CE"/>
</svg>
