<svg width="12" height="6" viewBox="0 0 12 6" fill="none" xmlns="http://www.w3.org/2000/svg">
<path d="M11.0689 0.157721L6.38395 4.76872C6.28173 4.86985 6.14374 4.92657 5.99995 4.92657C5.85616 4.92657 5.71817 4.86985 5.61595 4.76872L0.930947 0.158722C0.828091 0.0576463 0.689654 0.00100998 0.545447 0.00100999C0.40124 0.00101 0.262803 0.0576463 0.159947 0.158722C0.109298 0.208099 0.0690465 0.267115 0.0415625 0.332292C0.0140786 0.397469 -8.05923e-05 0.467488 -8.05862e-05 0.538222C-8.058e-05 0.608957 0.0140786 0.678975 0.0415626 0.744152C0.0690465 0.809329 0.109298 0.868345 0.159947 0.917722L4.84395 5.52772C5.15247 5.83065 5.56757 6.00037 5.99995 6.00037C6.43232 6.00037 6.84743 5.83065 7.15595 5.52772L11.8399 0.917721C11.8907 0.868328 11.9311 0.809251 11.9587 0.743981C11.9863 0.678712 12.0005 0.608576 12.0005 0.537721C12.0005 0.466866 11.9863 0.39673 11.9587 0.331461C11.9311 0.266191 11.8907 0.207113 11.8399 0.157721C11.7371 0.0566449 11.5987 8.6182e-06 11.4544 8.63081e-06C11.3102 8.64341e-06 11.1718 0.056645 11.0689 0.157721Z" fill="#29127D"/>
</svg>
